<?xml version="1.0" encoding="UTF-8" standalone="no"?>
<!-- Created with Inkscape (http://www.inkscape.org/) -->
<svg
   xmlns:dc="http://purl.org/dc/elements/1.1/"
   xmlns:cc="http://web.resource.org/cc/"
   xmlns:rdf="http://www.w3.org/1999/02/22-rdf-syntax-ns#"
   xmlns:svg="http://www.w3.org/2000/svg"
   xmlns="http://www.w3.org/2000/svg"
   xmlns:xlink="http://www.w3.org/1999/xlink"
   xmlns:sodipodi="http://sodipodi.sourceforge.net/DTD/sodipodi-0.dtd"
   xmlns:inkscape="http://www.inkscape.org/namespaces/inkscape"
   width="500"
   height="500"
   id="svg2"
   sodipodi:version="0.32"
   inkscape:version="0.44.1"
   version="1.0"
   sodipodi:docbase="/home/tomas/work/clip-art"
   sodipodi:docname="venus-aph.svg">
  <defs
     id="defs4">
    <defs
       id="defs3268">
      <linearGradient
         gradientTransform="translate(90.40596,107.2585)"
         gradientUnits="userSpaceOnUse"
         y2="208.112"
         x2="394.85501"
         y1="253.422"
         x1="341.60101"
         id="61">
        <stop
           id="stop3271"
           style="stop-color:#eaeaea"
           offset="0" />
        <stop
           id="stop3273"
           style="stop-color:#6f6f6f"
           offset="1" />
      </linearGradient>
    </defs>
    <defs
       id="defs3140">
      <linearGradient
         gradientTransform="translate(90.40596,107.2585)"
         gradientUnits="userSpaceOnUse"
         y2="45.3703"
         x2="193.972"
         y1="114.15"
         x1="241.258"
         id="47">
        <stop
           id="stop3143"
           style="stop-color:#92979a;stop-opacity:1;"
           offset="0" />
        <stop
           id="stop3145"
           style="stop-color:#474745;stop-opacity:1;"
           offset="1" />
      </linearGradient>
    </defs>
    <defs
       id="defs2996">
      <linearGradient
         gradientTransform="translate(90.40596,107.2585)"
         gradientUnits="userSpaceOnUse"
         y2="296.46201"
         x2="142.96001"
         y1="327.52701"
         x1="164.317"
         id="31">
        <stop
           id="stop2999"
           style="stop-color:#eaeaea"
           offset="0" />
        <stop
           id="stop3001"
           style="stop-color:#6f6f6f"
           offset="1" />
      </linearGradient>
    </defs>
    <defs
       id="defs2958">
      <radialGradient
         gradientTransform="translate(90.40596,107.2585)"
         gradientUnits="userSpaceOnUse"
         fy="255.084"
         fx="411.069"
         r="90.395103"
         cy="255.084"
         cx="411.069"
         id="27">
        <stop
           id="stop2961"
           style="stop-color:#d9d9d9"
           offset="0" />
        <stop
           id="stop2963"
           style="stop-color:#d9d9d9"
           offset="0.215" />
        <stop
           id="stop2965"
           style="stop-color:#a0a0a0"
           offset="1" />
      </radialGradient>
    </defs>
    <defs
       id="defs2832">
      <linearGradient
         gradientTransform="translate(90.40596,107.2585)"
         gradientUnits="userSpaceOnUse"
         y2="195.67999"
         x2="220.3"
         y1="241.119"
         x1="251.53999"
         id="13">
        <stop
           id="stop2835"
           style="stop-color:#eaeaea"
           offset="0" />
        <stop
           id="stop2837"
           style="stop-color:#6f6f6f"
           offset="1" />
      </linearGradient>
    </defs>
    <defs
       id="defs2760">
      <linearGradient
         gradientTransform="translate(90.40596,107.2585)"
         gradientUnits="userSpaceOnUse"
         y2="265.42801"
         x2="153.769"
         y1="340.336"
         x1="205.26801"
         id="5">
        <stop
           id="stop2763"
           style="stop-color:#eaeaea"
           offset="0" />
        <stop
           id="stop2765"
           style="stop-color:#6f6f6f;stop-opacity:0"
           offset="1" />
      </linearGradient>
    </defs>
    <defs
       id="defs2747">
      <radialGradient
         gradientTransform="translate(90.40596,107.2585)"
         gradientUnits="userSpaceOnUse"
         fy="333.32199"
         fx="380.88901"
         r="35.5718"
         cy="333.32199"
         cx="380.88901"
         id="4">
        <stop
           id="stop2750"
           style="stop-color:#eaeaea"
           offset="0" />
        <stop
           id="stop2752"
           style="stop-color:#6f6f6f"
           offset="1" />
      </radialGradient>
    </defs>
    <defs
       id="defs2736">
      <linearGradient
         gradientTransform="translate(90.40596,107.2585)"
         gradientUnits="userSpaceOnUse"
         y2="205.09801"
         x2="369.20599"
         y1="244.487"
         x1="292.89099"
         id="3">
        <stop
           id="stop2739"
           style="stop-color:#eaeaea;stop-opacity:0"
           offset="0" />
        <stop
           id="stop2741"
           style="stop-color:#6f6f6f;stop-opacity:0"
           offset="1" />
      </linearGradient>
    </defs>
    <defs
       id="defs2725">
      <radialGradient
         gradientTransform="translate(90.40596,107.2585)"
         gradientUnits="userSpaceOnUse"
         fy="288.26801"
         fx="338.01199"
         r="227.485"
         cy="288.26801"
         cx="338.01199"
         id="2">
        <stop
           id="stop2728"
           style="stop-color:#eaeaea"
           offset="0" />
        <stop
           id="stop2730"
           style="stop-color:#eaeaea"
           offset="0.08" />
        <stop
           id="stop2732"
           style="stop-color:#a0a0a0"
           offset="1" />
      </radialGradient>
    </defs>
    <defs
       id="defs2716">
      <radialGradient
         gradientTransform="translate(90.40596,107.2585)"
         gradientUnits="userSpaceOnUse"
         fy="445.01401"
         fx="37.8988"
         r="620.711"
         cy="445.01401"
         cx="37.8988"
         id="1">
        <stop
           id="stop2719"
           style="stop-color:#eaeaea"
           offset="0" />
        <stop
           id="stop2721"
           style="stop-color:#a0a0a0"
           offset="1" />
      </radialGradient>
    </defs>
    <linearGradient
       id="linearGradient5272">
      <stop
         id="stop5274"
         offset="0"
         style="stop-color:#878785;stop-opacity:1;" />
      <stop
         id="stop5276"
         offset="1"
         style="stop-color:#b3b3b3;stop-opacity:0;" />
    </linearGradient>
    <linearGradient
       id="linearGradient5290"
       inkscape:collect="always">
      <stop
         id="stop5292"
         offset="0"
         style="stop-color:#b3b3b3;stop-opacity:1;" />
      <stop
         id="stop5294"
         offset="1"
         style="stop-color:#b3b3b3;stop-opacity:0;" />
    </linearGradient>
    <linearGradient
       id="linearGradient5300"
       inkscape:collect="always">
      <stop
         id="stop5302"
         offset="0"
         style="stop-color:#ececec;stop-opacity:1;" />
      <stop
         id="stop5304"
         offset="1"
         style="stop-color:#ececec;stop-opacity:0;" />
    </linearGradient>
    <radialGradient
       inkscape:collect="always"
       xlink:href="#linearGradient5300"
       id="radialGradient1977"
       gradientUnits="userSpaceOnUse"
       gradientTransform="matrix(0.500415,0,0,1.120271,71.69377,-415.0319)"
       cx="448.8179"
       cy="684.36121"
       fx="448.8179"
       fy="684.36121"
       r="25.050301" />
    <linearGradient
       inkscape:collect="always"
       xlink:href="#linearGradient5290"
       id="linearGradient1980"
       gradientUnits="userSpaceOnUse"
       gradientTransform="matrix(0.500415,0,0,0.500415,74.91042,-1.522707)"
       x1="413.32999"
       y1="750.10846"
       x2="437.50369"
       y2="679.13257" />
    <radialGradient
       inkscape:collect="always"
       xlink:href="#linearGradient5272"
       id="radialGradient1983"
       gradientUnits="userSpaceOnUse"
       gradientTransform="matrix(0.824769,0,0,1.728915,-53.05813,-854.4166)"
       cx="415.46719"
       cy="690.85474"
       fx="415.46719"
       fy="690.85474"
       r="20.934172" />
    <radialGradient
       inkscape:collect="always"
       xlink:href="#27"
       id="radialGradient2001"
       gradientUnits="userSpaceOnUse"
       gradientTransform="matrix(0.589376,0,0,0.589376,120.6563,41.53072)"
       cx="411.069"
       cy="255.084"
       fx="411.069"
       fy="255.084"
       r="90.395103" />
    <radialGradient
       inkscape:collect="always"
       xlink:href="#4"
       id="radialGradient2015"
       gradientUnits="userSpaceOnUse"
       gradientTransform="matrix(0.589376,0,0,0.589376,120.6563,41.53072)"
       cx="380.88901"
       cy="333.32199"
       fx="380.88901"
       fy="333.32199"
       r="35.5718" />
    <radialGradient
       inkscape:collect="always"
       xlink:href="#2"
       id="radialGradient2022"
       gradientUnits="userSpaceOnUse"
       gradientTransform="matrix(0.589376,0,0,0.589376,120.6563,41.53072)"
       cx="338.01199"
       cy="288.26801"
       fx="338.01199"
       fy="288.26801"
       r="227.485" />
    <radialGradient
       inkscape:collect="always"
       xlink:href="#1"
       id="radialGradient2025"
       gradientUnits="userSpaceOnUse"
       gradientTransform="matrix(0.589376,0,0,0.589376,120.6563,41.53072)"
       cx="37.8988"
       cy="445.01401"
       fx="37.8988"
       fy="445.01401"
       r="620.711" />
    <radialGradient
       inkscape:collect="always"
       xlink:href="#13"
       id="radialGradient2958"
       gradientUnits="userSpaceOnUse"
       gradientTransform="matrix(1.520882,2.318004,-3.749995,2.46048,1106.314,-1595.983)"
       spreadMethod="reflect"
       cx="370.57248"
       cy="389.31448"
       fx="370.57248"
       fy="389.31448"
       r="30.213463" />
    <radialGradient
       inkscape:collect="always"
       xlink:href="#31"
       id="radialGradient2967"
       cx="320.37244"
       cy="210.81087"
       fx="320.37244"
       fy="210.81087"
       r="32.311375"
       gradientTransform="matrix(0.65358,-0.476208,0.375784,0.515751,28.86818,235.8778)"
       gradientUnits="userSpaceOnUse"
       spreadMethod="reflect" />
  </defs>
  <sodipodi:namedview
     id="base"
     pagecolor="#ffffff"
     bordercolor="#666666"
     borderopacity="1.0"
     gridtolerance="10000"
     guidetolerance="10"
     objecttolerance="10"
     inkscape:pageopacity="0.0"
     inkscape:pageshadow="2"
     inkscape:zoom="1.066"
     inkscape:cx="250"
     inkscape:cy="250"
     inkscape:document-units="px"
     inkscape:current-layer="layer1"
     width="500px"
     height="500px"
     inkscape:window-width="976"
     inkscape:window-height="736"
     inkscape:window-x="48"
     inkscape:window-y="54" />
  <metadata
     id="metadata7">
    <rdf:RDF>
      <cc:Work
         rdf:about="">
        <dc:format>image/svg+xml</dc:format>
        <dc:type
           rdf:resource="http://purl.org/dc/dcmitype/StillImage" />
        <dc:title>Venus de Milo</dc:title>
        <dc:creator>
          <cc:Agent>
            <dc:title>Tomas</dc:title>
          </cc:Agent>
        </dc:creator>
        <dc:description>Venus de Milo portrait</dc:description>
        <dc:subject>
          <rdf:Bag>
            <rdf:li>venus</rdf:li>
            <rdf:li>aphrodita</rdf:li>
            <rdf:li>antik</rdf:li>
            <rdf:li>greece</rdf:li>
            <rdf:li>roman</rdf:li>
            <rdf:li>mitology</rdf:li>
          </rdf:Bag>
        </dc:subject>
        <cc:license
           rdf:resource="http://web.resource.org/cc/PublicDomain" />
      </cc:Work>
      <cc:License
         rdf:about="http://web.resource.org/cc/PublicDomain">
        <cc:permits
           rdf:resource="http://web.resource.org/cc/Reproduction" />
        <cc:permits
           rdf:resource="http://web.resource.org/cc/Distribution" />
        <cc:permits
           rdf:resource="http://web.resource.org/cc/DerivativeWorks" />
      </cc:License>
    </rdf:RDF>
  </metadata>
  <g
     inkscape:label="Layer 1"
     inkscape:groupmode="layer"
     id="layer1">
    <g
       id="g3701"
       transform="matrix(0.637427,0,-8.563213e-2,0.546147,-237.9394,-28.49877)">
      <path
         style="opacity:0.1;fill:#999;fill-rule:evenodd;stroke:none;stroke-width:0.87036043"
         d="M 882.34375,221.5625 C 876.89405,221.69781 872.25622,224.23594 867.46875,226.375 C 858.41902,228.05442 848.31968,222.38237 840.28125,228.90625 C 834.76502,233.08543 826.13253,229.80539 821.31814,235.46574 C 813.02638,241.96028 802.26154,245.56147 796.125,254.375 C 789.45152,258.84929 785.67918,267.26221 777.875,270.15625 C 772.60642,270.99785 767.02045,273.0323 762,269.90625 C 754.05069,264.88303 745.54565,271.37581 739.21875,276.09375 C 734.2756,277.11243 730.90928,280.51705 727.375,283.625 C 723.45744,284.81467 718.20604,284.17743 716.40625,288.875 C 712.91619,295.06645 706.95316,299.27165 704.0625,305.84375 C 703.54614,311.90407 706.77151,319.49832 700.84375,323.8125 C 697.22983,328.27124 692.13212,334.2967 695.875,340.09375 C 698.84446,346.26724 704.57529,352.8158 700.8722,359.97146 C 697.18192,367.36704 699.70847,375.80502 703.71614,382.47742 C 710.54553,391.13891 708.72516,404.09056 717.36127,411.49881 C 724.79031,421.5822 735.52788,428.54213 743.84375,437.78125 C 746.8389,442.69901 752.15495,446.02911 754.71875,451.40625 C 759.12057,460.18844 769.27535,462.22463 777.5,465.75 C 785.25894,469.89086 791.72293,479.12315 789.6875,488.15625 C 786.09777,495.04609 779.74398,500.17285 777.46875,507.84375 C 770.45916,511.92185 763.71616,517.09048 758,522.59375 C 753.64979,537.75181 761.62371,552.23677 764.6875,566.78125 C 761.59425,576.21839 751.86306,584.5735 755.28125,595.25 C 756.99489,599.79852 757.40967,605.44538 752.45194,608.38873 C 739.72151,621.99147 723.52511,631.74581 709.28455,643.67109 C 701.49948,649.77913 693.57998,655.76457 685.75,661.78125 C 693.18399,687.72042 701.97762,714.60179 720.46875,734.96875 C 738.74246,750.44183 761.88416,759.1162 783.59375,768.5 C 813.09663,780.25819 843.07654,791.50136 873.78125,799.5625 C 903.06657,802.93613 932.86144,800.47709 962.23884,798.58526 C 980.10036,796.67867 998.65091,796.12179 1015.6562,790.1875 C 1030.0319,779.41974 1038.2297,762.58542 1046.3422,746.97502 C 1061.581,714.3263 1072.659,679.70917 1077.9688,644.0625 C 1078.6437,633.06832 1080.9353,619.57656 1073,610.59375 C 1066.1412,606.18389 1057.0843,608.75901 1049.3438,607.78125 C 1029.3008,606.97437 1009.4431,611.98033 989.4375,610.875 C 979.93112,610.47646 971.17669,606.80889 963.0173,602.18302 C 959.34417,599.04159 948.87529,599.05347 950.78125,593.3125 C 953.11282,586.38602 954.24096,579.18114 955.46875,572 C 973.56861,571.45445 993.5948,571.65596 1008.3397,560.05123 C 1018.2675,550.26778 1017.832,534.93145 1017.2149,522.13237 C 1016.3467,516.85615 1020.3599,513.74246 1021.6562,509.1875 C 1022.2562,502.65801 1023.9158,496.03871 1026.5938,489.96875 C 1024.4889,484.29474 1022.7296,476.43518 1027.7812,471.71875 C 1033.2434,469.19143 1039.5521,472.52129 1045.2812,470.75 C 1051.2506,471.49034 1053.5749,464.34379 1051.227,459.79733 C 1045.2268,436.70112 1037.7659,413.84206 1033.5625,390.40625 C 1033.7757,384.95299 1038.6034,380.9544 1040.1454,376.31799 C 1038.6465,360.12932 1036.312,343.8585 1035.3438,327.71875 C 1036.8656,320.12902 1043.1551,313.29059 1042.3771,305.59946 C 1040.887,300.00228 1041.3144,293.88467 1037.25,289.21875 C 1035.6824,284.10609 1033.3621,279.52431 1028.4318,276.84507 C 1023.4792,272.14391 1018.0403,266.00054 1010.4375,267.5625 C 1006.5244,267.72013 1004.1471,264.25826 1003.5312,260.8125 C 998.47621,253.34777 993.08554,245.55322 985.71875,240.21875 C 978.40097,234.50559 969.54832,232.31372 960.83543,229.61281 C 943.71789,224.04687 925.35274,224.48261 907.4375,224.09375 C 898.94126,224.82917 890.779,221.42 882.34375,221.5625 z "
         id="path3703" />
      <path
         style="opacity:0.1;fill:#999;fill-rule:evenodd;stroke:none;stroke-width:0.87036043"
         d="M 882.3125,220.78125 C 876.98885,221.04058 872.27737,223.13933 867.6875,225.5 C 858.74378,227.50567 848.84246,221.58301 840.71875,227.8125 C 834.95276,232.43926 825.9409,228.92801 820.84939,234.84074 C 812.55227,241.36271 801.86923,244.74768 795.6875,253.71875 C 789.09651,258.16277 785.34545,266.30749 777.8125,269.375 C 772.21535,270.60252 766.35368,272.06841 761.125,268.71875 C 753.33988,264.32605 744.99205,270.91416 738.9375,275.375 C 734.059,276.51625 730.48878,279.67466 727.0625,282.9375 C 722.9573,283.91857 717.60871,283.72246 715.75,288.46875 C 712.24854,294.89727 705.56186,299.17668 703.25,306.25 C 702.76747,311.99674 705.9707,319.18505 700.28125,323.28125 C 696.58961,327.87315 691.22098,334.1176 695.09375,340.1875 C 697.82038,346.33709 703.8334,352.68553 700.1222,359.75271 C 695.87945,368.29846 699.71959,377.71973 704.375,385.125 C 709.90479,393.43885 708.5962,405.25384 716.76752,411.99881 C 724.14398,422.0689 734.85329,429.00261 743.1875,438.1875 C 746.13381,443.15571 751.56717,446.40486 754.09375,451.84375 C 758.52177,460.77367 768.80666,462.88904 777.125,466.4375 C 784.58003,470.3647 790.78761,479.24506 788.96875,487.84375 C 785.38375,494.68647 779.1555,499.76417 776.84375,507.28125 C 769.89916,511.54957 762.88896,516.48469 757.28125,522.3125 C 752.86348,537.42418 760.71744,552.20185 763.875,566.75 C 760.65556,576.17616 751.01368,584.49793 754.53125,595.375 C 756.0749,599.64942 756.76052,605.05695 751.88944,607.85748 C 739.42784,621.21745 723.53423,630.76765 709.57456,642.46424 C 701.63953,649.10964 692.08712,655.1022 685,661.96875 C 692.45425,688.00082 701.29049,715.01372 719.875,735.46875 C 737.96399,750.86703 760.57205,759.37362 782.13418,768.75275 C 812.1347,780.75048 842.41986,792.10671 873.6875,800.34375 C 903.43463,803.71586 933.52412,801.26831 963.29762,799.28034 C 981.06562,797.26152 999.55662,796.93393 1016.375,790.6875 C 1031.5209,778.92867 1040.134,760.95882 1048.5312,744.15625 C 1062.9456,712.35107 1073.6798,678.72631 1078.7188,644.15625 C 1079.4969,632.90909 1081.6526,619.24902 1073.6875,610.1875 C 1067.1405,605.30957 1057.9155,608.05635 1050.3438,607 C 1029.9977,606.12211 1009.8506,611.11369 989.53125,610.125 C 980.37882,609.64122 971.90227,606.40782 964.08267,601.78704 C 960.53949,598.73663 950.59946,598.66729 951.53125,593.53125 C 953.87491,586.80261 954.89498,579.76888 956.125,572.78125 C 974.11738,572.21323 994.10193,572.28548 1008.8172,560.65332 C 1018.9026,550.87864 1018.6801,535.28724 1017.9962,522.22612 C 1016.8602,516.46452 1022.3931,513.32205 1022.5312,508 C 1023.237,501.82314 1024.9745,495.62738 1027.4062,489.90625 C 1025.4231,484.4185 1023.4382,476.96802 1028.25,472.34375 C 1033.6291,470.119 1039.6919,473.22142 1045.3438,471.53125 C 1052.3209,472.22029 1054.5051,463.78366 1051.7383,458.70943 C 1045.8276,435.97619 1038.499,413.47673 1034.3438,390.40625 C 1034.6217,385.07174 1039.4074,381.15801 1040.9271,376.59919 C 1039.4202,360.38347 1037.1333,344.12867 1036.0938,327.9375 C 1037.6038,320.29622 1044.0125,313.36281 1043.18,305.57138 C 1041.5636,299.86472 1042.1171,293.60998 1037.9101,288.81926 C 1036.2872,284.04325 1034.6258,279.26074 1029.6875,276.90625 C 1024.3978,272.35433 1019.1213,265.28506 1011.2188,266.8125 C 1007.2439,267.26706 1004.8061,263.93849 1004.2188,260.46875 C 997.78478,250.90968 990.6919,240.81345 979.90593,235.8216 C 972.75646,231.43075 964.15348,230.37493 956.4375,227.34375 C 938.13076,223.08242 919.08231,223.58146 900.3125,223.15625 C 894.3208,222.24587 888.36067,220.75432 882.3125,220.78125 z "
         id="path3708" />
      <path
         style="opacity:0.1;fill:#999;fill-rule:evenodd;stroke:none;stroke-width:0.87036043"
         d="M 882.25,220 C 876.88603,220.27313 872.07575,222.34935 867.46875,224.75 C 858.48479,226.59332 848.39555,220.85416 840.34375,227.125 C 834.57482,231.66791 825.49477,228.25355 820.41189,234.21574 C 812.67814,240.40282 803.00597,243.374 796.5625,251.28125 C 793.47214,255.39029 788.87996,257.93691 785.875,262.28125 C 782.39802,265.82311 778.66996,269.52898 773.3125,269.34375 C 768.01578,271.85154 763.02153,268.16828 758.28125,266.78125 C 748.36706,264.63863 742.06748,274.36776 733.40625,276.84375 C 729.34749,278.70065 727.15434,283.92064 721.84375,283.15625 C 714.61444,284.04659 713.66557,292.98058 708.25,296.65625 C 705.07455,301.06167 700.77003,305.50024 702.59375,311.5 C 703.82263,316.11369 702.85347,320.75874 698.90625,323.625 C 695.24046,328.33332 690.59212,334.68162 694.4375,340.65625 C 697.33645,346.74652 703.21088,353.43142 699.08115,360.45944 C 694.99641,369.24706 699.5408,378.92071 704.20001,386.37658 C 709.07771,394.65198 708.28028,405.92256 716.13241,412.47624 C 723.56535,422.6291 734.37386,429.54125 742.65625,438.84375 C 746.07983,443.85567 751.19685,447.58759 754.06066,453.1185 C 759.03913,462.52081 770.25624,463.68084 778.71875,468.15625 C 784.71436,472.64738 790.41611,480.48948 787.9375,488.28125 C 784.1763,494.52475 778.5376,499.60827 776.25,506.75 C 769.2528,510.97153 762.39413,516.06413 756.65625,521.71875 C 751.93831,537.01264 759.75451,551.98419 763.09375,566.71875 C 759.56685,576.12326 750.29075,584.62787 753.75,595.5 C 755.18802,599.50635 756.06823,604.68823 751.32694,607.32623 C 738.8878,620.64438 723.02927,630.16814 709.10581,641.83924 C 700.79138,648.33827 692.40108,654.73865 684,661.125 C 691.3226,687.3752 700.26319,714.4286 718.49786,735.1657 C 734.78994,749.99107 755.94958,758.01455 775.84327,766.99486 C 807.72515,780.02817 840.234,792.28987 873.5625,801.125 C 903.61992,804.51369 934.18517,802.03454 964.32555,799.98 C 981.70542,798.05727 999.64508,797.47331 1016.1562,791.6875 C 1029.919,781.92747 1038.0004,766.0421 1045.7968,751.54601 C 1061.8406,718.82151 1073.0881,683.58678 1079.042,647.6655 C 1080.2791,635.43435 1082.6229,621.31812 1075.25,610.65625 C 1068.8879,604.10615 1058.4668,607.35569 1050.375,606.21875 C 1030.0378,605.32641 1009.8956,610.3236 989.59375,609.34375 C 980.1201,608.94339 971.70478,605.2856 963.57785,600.71855 C 959.6186,597.65965 948.90107,597.69648 953.10683,590.86583 C 955.00144,585.24249 955.6877,579.33963 956.78125,573.53125 C 974.7081,573.03975 994.68925,572.82917 1009.28,561.30386 C 1019.5749,551.32472 1019.5405,535.66481 1018.7462,522.31987 C 1017.5468,516.2854 1024.0511,512.81111 1023.2812,507.03125 C 1024.204,501.03797 1026.1929,495.26617 1028.1562,489.71875 C 1026.3177,484.47502 1024.1697,477.22964 1028.875,472.84375 C 1034.2577,471.31992 1040.0509,473.84449 1045.5938,472.28125 C 1052.8479,472.83847 1055.4349,464.09847 1052.5208,458.64659 C 1046.6212,435.90155 1039.2629,413.36929 1035.125,390.28125 C 1035.4212,383.59226 1043.6838,379.70168 1041.3224,372.83975 C 1040.1327,357.64903 1037.2998,342.25955 1037.125,327.1875 C 1038.9223,320.15417 1043.9361,313.73075 1044.313,306.54991 C 1042.1019,300.80145 1043.3429,294.25814 1039.0938,289.28125 C 1036.8196,284.78053 1036.2734,279.21939 1030.988,276.97785 C 1025.0609,271.87753 1019.3021,264.30437 1010.5,266 C 1005.2529,266.22964 1005.8767,260.11118 1003.1875,257.28125 C 996.59797,248.49217 989.94739,239.25546 979.625,234.75 C 972.47724,230.71479 964.27063,229.51012 956.625,226.59375 C 937.90737,222.12535 918.5108,223.02441 899.45111,222.2106 C 893.70407,221.31201 888.1066,219.9863 882.25,220 z "
         id="path3713" />
      <path
         style="opacity:0.1;fill:#999;fill-rule:evenodd;stroke:none;stroke-width:0.87036043"
         d="M 882.1875,219.21875 C 876.85429,219.63036 871.86657,221.43678 867.28125,224 C 858.22933,225.69931 848.136,220.10422 840,226.4375 C 834.36032,230.84882 824.91142,227.63426 819.94314,233.59074 C 811.72939,240.08813 801.07127,243.33334 794.9375,252.25 C 788.49349,256.69276 784.78348,264.14068 777.75,267.8125 C 772.35632,268.83441 766.72746,270.65503 761.71875,267.28125 C 753.58664,262.71477 744.61366,269.05154 738.3125,273.9375 C 733.419,275.10991 729.7324,278.2659 726.28125,281.53125 C 721.83923,282.25715 716.44583,282.75872 714.4375,287.59375 C 710.84718,294.12893 704.11925,298.5378 701.71875,305.75 C 700.86252,311.26238 704.6531,318.34254 699.125,322.21875 C 694.91579,327.30024 689.4963,334.28822 693.71875,340.9375 C 696.45432,347.00545 702.44139,353.27967 698.3624,360.24069 C 694.37543,368.82012 698.30494,378.54809 703.03125,385.875 C 708.40433,394.33438 707.34703,406.16742 715.53866,412.97624 C 722.92123,423.15374 733.83405,429.96008 742.03125,439.375 C 745.76047,444.3933 750.92292,448.64874 754.00059,454.35887 C 759.22565,463.75401 771.14072,464.34598 779.4375,469.59375 C 784.40733,474.04199 789.87136,481.4098 787,488.40625 C 782.89917,494.32952 778.04913,499.68986 775.3125,506.375 C 768.54683,510.63096 761.55708,515.66304 756,521.25 C 751.03473,536.72126 758.87325,551.82991 762.28125,566.6875 C 758.58015,576.04307 749.46985,584.69011 753,595.59375 C 754.37851,599.45935 755.29739,604.34753 750.76444,606.79498 C 738.34924,620.07045 722.52469,629.5682 708.63706,641.21424 C 700.16688,647.83031 691.67059,654.35958 683.09375,660.84375 C 690.55082,687.52322 699.67791,715.24275 718.28125,736.09375 C 736.05572,751.73297 759.02674,760.36874 780.58073,769.78748 C 811.30113,782.0467 842.35004,793.93473 874.39264,802.0394 C 906.83422,805.31333 939.58292,802.64089 971.99547,800.09243 C 987.15338,798.08695 1003.0482,797.78705 1017.2812,791.9375 C 1032.871,779.91843 1041.7925,761.25002 1050.3574,743.90494 C 1064.7212,711.8976 1075.5273,678.06459 1080.3883,643.287 C 1081.1927,631.81679 1083.0162,617.74617 1074.4375,608.71875 C 1066.6628,603.65492 1056.2771,606.38245 1047.4688,605.42663 C 1027.6567,604.79519 1008.0003,609.88882 988.21875,608.40625 C 975.09854,607.86349 964.6747,599.41752 952.75,594.9375 C 954.98904,588.21801 956.31012,581.28976 957.4375,574.3125 C 975.07746,574.08464 996.01777,572.87957 1009.5625,562.125 C 1020.2239,552.06561 1020.3875,536.02321 1019.5274,522.41362 C 1018.3885,516.3918 1024.8291,513.07716 1024.0625,507.21875 C 1024.9194,501.11425 1027.1742,495.24626 1028.9375,489.5625 C 1027.1867,484.64859 1024.9521,477.54797 1029.4062,473.46875 C 1035.0065,472.37105 1040.9676,474.58414 1046.6698,472.87539 C 1054.3602,472.90683 1056.0417,463.08324 1053.0136,457.55516 C 1047.2098,435.17113 1040.0048,412.96391 1035.9062,390.25 C 1036.4251,385.13302 1041.1386,381.46031 1042.5519,377.00546 C 1041.173,360.49801 1038.3693,343.87823 1037.8438,327.4375 C 1039.622,320.03119 1045.6028,313.23289 1044.8403,305.6013 C 1042.9641,300.04135 1043.8692,293.66382 1039.75,288.90625 C 1037.5382,284.29937 1036.8242,278.69504 1031.488,276.3841 C 1025.5472,271.14108 1019.413,263.52041 1010.4062,265.21875 C 1005.2347,265.11968 1006.5951,258.51607 1003.25,256.03125 C 996.59389,247.12058 989.71834,238.08776 979.15586,233.61033 C 972.25572,229.8623 964.05727,228.62022 956.8125,225.84375 C 938.07325,221.36848 918.67232,222.20922 899.57611,221.4606 C 893.81795,220.56296 888.04299,219.16224 882.1875,219.21875 z "
         id="path3718" />
      <path
         style="opacity:0.1;fill:#999;fill-rule:evenodd;stroke:none;stroke-width:0.87036043"
         d="M 882.15625,218.4375 C 877.28456,219.22263 872.20469,219.85798 868.1875,222.84375 C 863.21334,224.73462 857.73836,222.70963 852.58067,222.59996 C 846.5479,221.49804 840.98688,224.83274 836.125,227.78125 C 831.63937,228.38419 826.64128,228.53198 822.625,230.46875 C 817.00317,235.24591 810.603,238.99516 804.10531,242.48345 C 800.79491,245.06318 797.46756,247.98435 794.71875,251.15625 C 792.43213,254.1375 788.81971,255.6976 786.84375,258.96875 C 784.08,261.87181 781.1926,265.02139 777.75,267 C 773.43828,267.19184 768.9938,269.88004 764.83268,267.66862 C 761.8246,266.63262 759.15871,264.64242 755.78515,265.03659 C 749.9467,264.71379 744.79451,268.36963 740.21875,271.5625 C 737.05663,274.68381 731.65932,274.75923 728.68644,278.26746 C 727.34279,279.78292 725.97516,281.3871 723.75,281.34375 C 720.59409,281.31887 717.44958,282.41392 715.46875,284.8125 C 712.75128,288.15292 710.83232,292.50365 707.35715,295.34444 C 705.19163,298.43425 702.49274,301.38319 701.0625,304.9375 C 700.40788,309.35151 701.66691,313.90358 701.21875,318.28125 C 699.44177,321.24315 696.59292,323.41269 694.95247,326.528 C 692.70487,330.01347 690.08385,334.23659 691.9375,338.5 C 693.34671,343.02939 696.26289,347.00494 698.3125,351.21875 C 699.08768,353.71981 699.24408,356.23978 698.03976,358.64216 C 696.82571,362.76825 694.8577,367.03864 696.36218,371.38037 C 696.97081,374.54716 697.30385,377.77429 699.25,380.46875 C 700.90837,384.32026 703.41148,387.66139 705.09007,391.50331 C 706.44412,397.34526 708.03122,403.25278 710.78125,408.5 C 714.2563,412.68412 718.00192,417.12512 721.46875,421.15625 C 725.63594,424.70033 729.55008,428.41608 733.47285,432.16102 C 736.55739,435.0814 740.39436,437.62535 742.31559,441.32652 C 745.26291,444.39355 748.51728,447.43891 750.75959,451.21326 C 753.12643,454.06544 754.78083,457.68574 757.72917,459.91728 C 761.79645,462.78635 766.27361,465.26834 771.19759,466.45903 C 775.54152,467.97838 779.88957,470.03727 782.53125,473.96875 C 785.34481,477.0628 786.8832,480.95898 787.07502,485.14548 C 786.99453,488.71095 783.76897,491.33181 781.86634,494.14763 C 778.76352,497.50304 776.83902,501.64763 774.90625,505.71875 C 768.0485,509.74286 761.70762,515.1724 755.625,520.21875 C 753.58871,525.84608 753.38382,532.21039 753.875,538.1875 C 755.86176,547.8702 759.17111,557.32338 761.4375,566.875 C 758.31876,574.11251 752.72296,580.37064 751.46875,588.34375 C 751.66234,592.34188 752.06699,596.45049 753.40625,600.1875 C 753.98135,602.9627 751.76996,604.73551 750.0098,606.46434 C 746.28883,610.55063 742.45363,614.42782 737.88146,617.56134 C 719.3381,631.89879 700.92216,646.40207 682.21875,660.53125 C 687.8947,681.98769 695.2526,703.14499 706.78125,722.1875 C 712.12286,730.91239 718.74406,739.02917 727.57212,744.46175 C 747.09319,756.95483 768.85278,765.92399 790.30729,774.56108 C 816.76732,784.90105 843.56931,794.52289 870.9375,802.1875 C 884.33113,804.73449 898.07735,804.20763 911.64897,804.22348 C 940.79535,803.56439 969.99734,801.9404 998.84375,797.5625 C 1005.4191,796.29268 1012.4936,795.57291 1018.3125,792.21875 C 1027.7954,785.06804 1034.434,774.65721 1040.5578,764.4617 C 1056.4523,736.91133 1066.835,706.63738 1074.8469,675.93589 C 1078.928,659.28641 1082.8419,642.17871 1081.6194,624.92536 C 1080.9368,617.87924 1078.9038,609.18245 1071.7595,606.3046 C 1065.4134,604.27365 1058.5548,605.08481 1051.9797,604.66858 C 1042.6758,604.44593 1033.379,604.7827 1024.1369,605.8736 C 1014.4291,606.49453 1004.7529,607.74892 995.03489,608.07755 C 985.66818,607.73908 975.93985,606.41296 968.03125,601.03125 C 963.24211,598.88533 958.48269,596.64245 953.6875,594.5 C 955.79701,588.17946 957.03194,581.65822 958.09375,575.09375 C 973.35971,574.76522 989.34407,574.01445 1003.2539,567.17506 C 1006.2645,565.71041 1008.5675,563.40487 1011.75,562.21875 C 1009.9495,561.62023 1013.2025,560.01995 1013.5238,558.83553 C 1020.4847,549.11125 1021.2124,536.33408 1020.3125,524.71875 C 1020.0367,522.0606 1020.814,519.31065 1021.0625,516.65625 C 1022.0009,515.20628 1023.5586,514.26669 1023.7812,512.625 C 1025.3054,509.76888 1024.5569,506.55274 1025.6654,503.58079 C 1026.4328,499.91699 1027.1551,496.20909 1028.824,492.91712 C 1030.7214,489.9949 1028.9217,486.75575 1028.0312,483.8125 C 1027.0749,480.85344 1027.5827,477.00521 1029.3125,474.46875 C 1032.1593,472.7643 1035.7359,474.77923 1038.875,474.34375 C 1043.4241,473.95518 1048.7152,474.43688 1052.4688,471.40625 C 1055.8892,467.76214 1055.6678,462.05881 1053.8712,457.66117 C 1048.0462,436.25308 1041.8471,414.91989 1037.0625,393.25 C 1035.571,388.14457 1039.5708,383.7754 1042.2312,379.87917 C 1044.4907,377.99598 1042.7554,374.99337 1042.8623,372.47952 C 1041.3724,357.85261 1039.7059,343.20832 1038.3125,328.59375 C 1039.903,322.40176 1043.4512,317.05847 1045.1486,310.88568 C 1046.2788,308.64724 1046.3702,306.4173 1045.1745,304.17961 C 1043.81,299.88554 1044.7111,294.9025 1041.8565,291.09298 C 1039.5108,287.56144 1038.5547,283.40125 1036.75,279.6875 C 1030.9834,275.56603 1026.3736,269.81486 1020.3135,266.06636 C 1016.9286,263.54086 1012.5418,265.13228 1008.8125,264.03125 C 1006.5115,263.18435 1007.3472,260.04594 1005.7461,258.41145 C 1001.2097,251.47568 995.75922,245.0577 989.96875,239.3125 C 985.38969,236.30835 980.61635,233.28161 975.65625,230.96875 C 969.22061,229.25042 962.82148,226.86278 956.58884,224.9794 C 950.6832,223.98961 944.79745,222.76092 938.86187,222.06949 C 926.22572,221.22039 913.54907,220.94443 900.89712,220.87685 C 894.68735,219.92136 888.46602,218.39936 882.15625,218.4375 z "
         id="path3723" />
      <path
         style="opacity:0.1;fill:#999;fill-rule:evenodd;stroke:none;stroke-width:0.87036043"
         d="M 882.09375,217.6875 C 877.14032,218.46993 871.89689,219.10499 867.8125,222.15625 C 863.0581,223.91932 857.92227,221.99086 853.03125,221.875 C 848.49767,221.14046 844.01376,222.28763 840.125,224.59375 C 837.75193,225.82533 835.67551,227.53252 832.87388,227.36572 C 828.53579,228.18059 823.37709,228.00124 820.26268,231.40393 C 814.90749,235.69265 808.98593,238.89503 803,242.21875 C 799.68036,245.34225 795.78875,248.22284 793.18208,251.82528 C 790.51083,254.04986 787.691,256.14552 785.74556,259.03264 C 783.15408,261.62781 780.58291,264.48343 777.46875,266.28125 C 774.08266,266.41393 770.74816,268.12997 767.375,267.6875 C 764.38903,267.01956 761.9364,265.24648 759.0625,264.53125 C 754.88108,263.80556 750.56902,264.32677 746.90625,266.5 C 743.21518,267.97978 740.3352,270.9239 736.96875,272.84375 C 732.85755,274.34913 728.81102,276.16645 726.25,279.75 C 723.25816,281.42253 719.19206,280.12869 716.59375,282.75 C 713.43927,285.09777 712.00108,288.99285 709.52581,291.9939 C 707.39771,294.07984 705.41375,296.20913 703.9455,298.75162 C 701.81904,301.50472 699.49377,304.48388 700.16284,308.20133 C 700.02748,311.45966 700.86448,314.86932 700.46875,318.03125 C 698.57562,321.01125 695.66562,323.28895 694.0625,326.5 C 691.60781,330.08636 689.29432,334.71011 691.32594,339.08216 C 692.7401,343.47095 695.50576,347.39165 697.5625,351.40625 C 698.21215,353.62103 698.55046,355.89107 697.40482,358.02068 C 696.10341,362.39041 694.08076,366.93268 695.61218,371.53662 C 696.24734,374.78286 696.56073,378.07879 698.5625,380.84375 C 700.21091,384.65074 702.68994,388.00621 704.3687,391.78518 C 705.74245,397.70199 707.31018,403.66819 710.15625,409 C 713.81435,413.21989 717.35895,417.65476 720.9375,421.71875 C 726.79428,426.57851 731.89522,431.99981 737.68637,436.926 C 739.5368,438.29033 740.61973,440.18031 741.84375,441.96875 C 744.89445,445.12769 748.06844,448.1592 750.36015,451.96756 C 753.14436,455.4357 755.06634,459.73755 759.125,461.8125 C 762.87118,464.38137 766.95519,466.15596 771.30933,467.35192 C 775.5626,468.7742 779.69429,470.94247 782.14919,474.77242 C 784.95576,477.8746 786.51265,482.13259 786.21875,486.28125 C 783.58909,492.13598 777.93397,496.23531 775.67343,502.41211 C 775.07722,504.43103 773.83393,505.76332 771.95431,506.61682 C 766.00769,510.556 760.36292,515.10326 755,519.75 C 752.91724,524.90932 752.83932,530.86145 752.95849,536.41957 C 753.96511,544.43637 756.8016,552.1173 758.81588,559.92293 C 759.28918,562.24863 760.48943,564.58359 760.59375,566.90625 C 757.34896,574.04955 751.88396,580.34681 750.71875,588.28125 C 750.96054,592.30129 751.20529,596.51832 752.65625,600.25 C 753.1578,603.76811 749.28382,605.44299 747.50293,607.93133 C 741.84622,614.40815 734.40388,618.90371 727.82508,624.35734 C 712.3584,636.34628 696.94238,648.40194 681.34375,660.21875 C 687.13096,682.45654 694.87231,704.42086 707,724.03125 C 712.30617,732.40677 718.90066,740.10061 727.45733,745.30375 C 746.51822,757.52277 767.67359,766.15904 788.54921,774.73658 C 815.52883,785.27757 842.83237,795.15977 870.75,802.9375 C 884.47616,805.50194 898.54971,804.97064 912.45129,804.96016 C 941.50047,804.27222 970.60571,802.64255 999.3525,798.2495 C 1005.9169,796.96097 1012.9632,796.29083 1018.7812,792.84375 C 1028.817,785.25956 1035.6382,774.20649 1042.0177,763.51613 C 1058.8423,733.65965 1069.7311,700.84453 1077.6767,667.59796 C 1080.9188,652.49232 1084.0455,636.89036 1081.9375,621.40625 C 1081.0071,614.43821 1077.4925,606.39132 1069.9378,604.92717 C 1060.5814,603.61652 1051.0488,603.98963 1041.6147,603.91997 C 1031.59,604.02143 1021.6525,605.55326 1011.6487,606.13008 C 1002.7407,606.86624 993.73586,608.17907 984.85733,606.37503 C 978.78887,605.67113 973.14311,603.38922 967.99016,600.18186 C 963.53511,598.14207 959.08005,596.10229 954.625,594.0625 C 956.58523,588.12617 957.74099,582.00666 958.71875,575.84375 C 974.02838,575.45782 990.0688,574.6813 1003.9688,567.6875 C 1007.2312,565.87523 1010.0431,563.49368 1013.5938,562.15625 C 1011.0324,561.81306 1013.6739,560.36805 1014.2188,559.1875 C 1021.2787,549.30755 1021.9447,536.39927 1021.0625,524.65625 C 1020.8984,522.05651 1021.3528,519.24688 1021.9646,516.79241 C 1022.8569,515.42199 1024.3067,514.6032 1024.5312,512.9375 C 1026.044,509.64165 1025.4835,505.96303 1026.6874,502.56415 C 1027.2671,499.30475 1028.0922,496.1272 1029.5704,493.19702 C 1030.6188,491.2772 1030.8545,489.27526 1029.9375,487.25 C 1029.1273,484.30905 1027.5882,481.44263 1028.6174,478.30828 C 1028.8025,476.35009 1029.7814,473.94108 1032.2188,474.53125 C 1038.3964,475.46123 1044.9693,475.30138 1050.9062,473.40625 C 1056.2203,470.70656 1056.936,463.38377 1054.8359,458.28376 C 1048.9309,436.49512 1042.5882,414.79678 1037.7455,392.74193 C 1036.5917,388.34932 1039.9961,384.66931 1042.1562,381.25 C 1043.2419,379.69342 1044.9392,378.5441 1044.0464,376.44124 C 1042.396,360.5639 1040.6534,344.69573 1039.0625,328.8125 C 1040.7577,322.45209 1044.3563,316.95727 1046.0897,310.5679 C 1047.177,308.52221 1047.2004,306.46615 1046.0844,304.42163 C 1044.4609,299.96113 1045.534,294.71839 1042.544,290.71798 C 1040.1228,287.17978 1039.31,282.85992 1037.3125,279.1875 C 1032.5828,275.50522 1028.3895,271.3298 1023.7812,267.5 C 1020.6749,264.8351 1016.772,263.2017 1012.6111,263.71875 C 1010.4856,263.91086 1007.5336,263.57378 1007.75,260.84375 C 1004.9077,254.34728 999.80461,249.12025 995.27416,243.76237 C 992.55629,240.39564 989.54153,237.60121 985.72562,235.66179 C 981.19496,232.994 976.7904,229.94403 971.54759,228.9388 C 964.72575,227.14705 958.49726,223.97341 951.44615,223.2865 C 945.48903,222.32719 939.61129,221.00306 933.54138,220.99424 C 922.70304,220.36704 911.83384,220.21379 900.9914,220.12357 C 894.73013,219.15255 888.45906,217.62601 882.09375,217.6875 z "
         id="path3728" />
      <path
         style="opacity:0.1;fill:#999;fill-rule:evenodd;stroke:none;stroke-width:0.87036043"
         d="M 882.0625,216.90625 C 876.47154,217.29383 871.1378,219.1529 866.3125,221.84375 C 857.44796,222.79957 847.72313,218.25407 839.75,223.90625 C 833.58148,228.74586 823.94844,225.28898 818.53307,231.74174 C 810.8468,237.78413 801.2213,240.89229 794.875,248.59375 C 791.1269,253.00876 786.51584,256.16632 782.875,260.84375 C 780.03921,263.80078 777.08768,266.58841 772.6875,266.28125 C 766.24521,269.25738 761.1496,262.17831 754.625,263.5 C 745.27223,263.64907 739.31885,272.33593 730.6875,274.6875 C 727.30049,276.89094 725.32813,281.16677 720.46875,280.15625 C 712.65847,281.73747 711.00944,290.96887 705.25,295.40625 C 702.05002,299.98305 697.81583,304.58355 699.45458,310.71758 C 700.05386,314.68834 700.63785,318.9805 696.75705,321.38904 C 692.18575,326.8835 687.09651,334.71052 691.5625,341.875 C 694.05379,347.76858 700.18275,353.53628 695.90625,360.21875 C 692.05945,369.24967 696.0564,379.30403 701,387.03125 C 706.19638,395.73087 705.42672,407.56137 713.78866,414.47624 C 721.0143,424.48309 731.79329,431.51855 739.96875,440.53125 C 743.8017,445.86357 749.21708,450.18163 752.4375,456.15625 C 757.74554,465.2933 769.17253,466.51542 777.65625,471.1875 C 781.96561,474.91936 786.91299,481.03777 785,487.15625 C 780.97584,492.99608 776.20112,498.27536 773.4375,504.75 C 766.6585,509.28862 759.42747,514.10862 753.96875,520.0625 C 749.96082,531.74092 753.04124,544.14881 756.74254,555.49304 C 757.68858,560.71949 761.93601,566.34337 757.59378,571.0396 C 753.05748,578.5048 747.83936,586.85851 750.6875,595.96875 C 751.23632,598.97181 753.49759,602.62092 749.55101,604.66761 C 736.55867,618.5635 720.05384,628.56386 705.49581,640.72331 C 697.20987,647.22674 688.84094,653.46389 680.46875,659.90625 C 687.84366,686.98479 696.97567,714.99284 715.53125,736.5 C 730.20509,750.93476 750.18313,758.70435 768.71531,767.31436 C 802.66369,781.62004 837.40872,794.68622 873.03125,804.1875 C 903.71114,807.63309 934.73747,805.12254 965.4375,803 C 982.92493,800.99354 1001.1395,800.55738 1017.7188,794.375 C 1032.1169,784.45946 1040.4028,768.01918 1048.5722,752.94932 C 1064.9173,719.55789 1076.4436,683.5243 1082.3125,646.78125 C 1083.4833,634.01519 1085.7043,618.89339 1077.1875,608.21875 C 1070.0877,600.89132 1058.4727,604.22672 1049.4062,603.125 C 1029.4977,602.31299 1009.7764,607.13917 989.90625,606.25 C 980.8631,605.93466 972.78625,602.27296 965.0496,597.96196 C 958.70824,595.82871 952.95333,593.42517 957.6875,586.1875 C 959.15402,582.54486 957.22006,574.96671 963.15625,576.53125 C 979.78249,576.01363 997.39113,574.10568 1011.1981,564.20525 C 1016.9246,562.4934 1012.0344,562.33869 1015.0312,559.40625 C 1023.105,548.24232 1022.1508,533.66717 1022.1074,520.61512 C 1022.0798,516.27026 1026.2935,513.98818 1026.3438,509.5 C 1026.5338,502.67424 1029.3886,496.22257 1031.375,489.90625 C 1030.5249,485.44272 1026.9788,479.24186 1030.875,475.40625 C 1038.3458,475.58918 1047.2886,477.31761 1053.625,472.40625 C 1060.5848,464.5913 1053.6137,453.97985 1052.1004,445.43246 C 1047.4248,427.07751 1041.432,408.81137 1038.2812,390.21875 C 1039.1334,383.83026 1047.4145,380.21388 1044.5078,373.30872 C 1043.152,358.2561 1040.8622,343.14093 1040.0938,328.125 C 1042.0471,320.72124 1047.4694,313.83846 1047.4631,306.17697 C 1045.1333,300.08859 1046.2942,292.98929 1041.7812,287.75 C 1039.5963,282.80903 1038.512,277.07932 1032.988,274.5716 C 1026.7836,269.1352 1020.2029,261.17236 1010.7812,262.90625 C 1007.3438,262.88199 1008.7815,258.01921 1006.3125,256.40625 C 999.38944,246.87149 992.26837,236.9243 981.1875,232.0625 C 973.85969,227.70651 965.08711,226.58856 957.3125,223.53125 C 938.52213,219.10078 919.08292,219.88621 899.95156,219.14539 C 894.0362,218.21426 888.08094,216.79914 882.0625,216.90625 z "
         id="path3733" />
      <path
         style="opacity:0.1;fill:#999;fill-rule:evenodd;stroke:none;stroke-width:0.87036043"
         d="M 882,216.125 C 876.36946,216.54426 870.92397,218.31928 866.125,221.09375 C 857.22972,221.86786 847.42582,217.52924 839.40625,223.21875 C 833.08981,227.91257 823.51072,224.65312 818.04375,231.13125 C 810.33062,237.21047 800.69221,240.26225 794.3125,248.0625 C 790.61266,252.45086 785.94326,255.60836 782.40361,260.22378 C 779.54914,263.79631 775.66449,265.71336 771.03125,265.84375 C 765.18627,267.59525 760.64809,261.29871 754.625,262.71875 C 745.07107,262.80452 739.00552,271.62065 730.25,274.03125 C 726.93118,276.17795 725.01391,280.35214 720.34375,279.40625 C 712.19776,280.91353 710.52009,290.35398 704.625,294.9375 C 701.28814,299.64205 697.04136,304.43542 698.67333,310.74883 C 699.31142,314.65443 699.71197,318.72623 696,321.0625 C 691.52774,326.61872 686.46482,334.24063 690.53125,341.40625 C 692.67708,347.44446 699.50234,353.29409 695.15625,360 C 691.60914,368.39042 694.62745,377.79788 698.96875,385.21875 C 705.59937,394.20608 704.11489,407.42501 713.19491,414.97624 C 720.38352,424.96677 731.12,431.95565 739.3125,440.96875 C 743.08948,446.28714 748.37499,450.34331 751.50059,456.20262 C 756.78704,465.528 768.12549,467.20095 776.90625,471.59375 C 781.17679,475.17654 785.98443,480.9805 784.25,486.90625 C 780.41283,492.57896 775.50184,497.6889 773.03125,504.09375 C 766.11746,508.68096 758.78417,513.6116 753.28125,519.65625 C 749.30295,531.19262 751.98988,543.51991 755.71875,554.75 C 756.83012,560.34648 761.07957,566.35492 756.53125,571.34375 C 751.9394,578.68955 747.15392,587.11202 749.9375,596.09375 C 750.29239,598.99067 752.75753,602.35157 748.86082,604.29004 C 735.8751,618.09735 719.43697,628.06958 704.92515,640.18154 C 696.53255,646.74285 688.03941,653.17344 679.5625,659.625 C 687.01829,687.00828 696.20542,715.22317 714.9375,737.03125 C 729.51394,751.39493 749.19848,759.10266 767.51238,767.64511 C 801.72052,782.1106 836.7236,795.27344 872.61003,804.89113 C 901.4633,808.40057 930.72755,805.96953 959.65625,804.28125 C 979.0092,802.20851 999.05187,801.76034 1017.5312,795.3125 C 1030.6504,787.10938 1038.2566,772.77743 1045.875,759.78125 C 1064.0075,725.35997 1076.121,687.5421 1082.7812,649.15625 C 1084.225,635.633 1086.7336,619.79563 1078.1875,608.125 C 1071.0568,600.06021 1058.8588,603.40369 1049.4062,602.34375 C 1029.5182,601.52502 1009.8174,606.34673 989.96875,605.46875 C 981.00554,605.24468 973.06387,601.46857 965.36259,597.24214 C 959.51212,595.23666 954.09835,593.02142 958.46875,586.3125 C 959.17484,581.40705 958.94088,575.47334 965.4375,577.21875 C 981.51819,576.64874 998.3495,574.34207 1011.6669,564.8617 C 1018.1074,562.73391 1014.5105,562.55378 1016.0625,559.28125 C 1023.8146,548.11125 1022.9431,533.61483 1022.8937,520.61572 C 1023.239,516.39112 1027.2127,513.63365 1027.1875,509.0625 C 1027.3639,502.30709 1030.509,496.05666 1032.1562,489.75 C 1031.3698,485.36489 1028.13,480.28914 1031.125,476.15625 C 1038.7234,476.50864 1047.8623,477.99489 1054.2188,472.90625 C 1061.2025,465.24195 1054.8813,454.66333 1053.1114,446.17906 C 1048.3904,427.49263 1042.1339,408.92274 1039.125,390 C 1040.3963,383.75217 1048.1648,380.15013 1045.2891,373.21497 C 1043.8847,358.2765 1041.7803,343.19407 1040.8125,328.34375 C 1042.8974,320.80534 1048.4233,313.71063 1048.215,305.92632 C 1046.0364,299.70943 1046.9099,292.7297 1042.4688,287.375 C 1040.3321,282.29577 1039.0319,276.57715 1033.4862,273.98007 C 1026.9421,267.86349 1019.8437,260.3342 1009.9688,262 C 1008.5652,260.38231 1008.4522,256.85771 1006.4062,255.09375 C 999.51775,245.88266 992.47088,236.12759 981.5625,231.40625 C 974.12782,227.00902 965.47933,225.85353 957.46875,222.78125 C 938.67974,218.36334 919.24264,219.04042 900.07656,218.39539 C 894.05691,217.45505 888.14056,215.98994 882,216.125 z "
         id="path3738" />
      <path
         style="opacity:0.1;fill:#999;fill-rule:evenodd;stroke:none;stroke-width:0.87036043"
         d="M 881.96875,215.34375 C 876.27672,215.8509 870.75631,217.46564 865.90625,220.34375 C 856.95181,220.93418 847.1608,216.82815 839.03125,222.53125 C 832.61028,227.06974 823.06216,224.00996 817.57312,230.53498 C 809.81052,236.48898 800.17122,239.77201 793.75,247.5 C 790.37847,251.7472 785.76894,254.55084 782.5625,259 C 779.53062,262.63329 775.75978,265.03225 770.9375,265.0625 C 765.49125,266.79739 761.19527,260.82932 755.625,261.9375 C 745.51639,261.39589 739.01155,270.63862 729.96875,273.3125 C 726.54352,275.2247 724.7617,279.64394 720.1875,278.625 C 711.84929,280.12712 709.8769,289.73006 704,294.5 C 700.503,299.2772 696.27469,304.3478 697.89208,310.78008 C 698.28762,314.44616 699.1834,318.32775 695.40625,320.5625 C 690.75902,326.30781 685.60586,334.27192 689.8125,341.6875 C 691.75289,347.65206 698.6606,353.08363 694.4375,359.78125 C 690.86503,368.19494 693.72141,377.67145 698.09375,385.1875 C 704.66473,394.07852 703.33549,407.05204 711.95991,414.74004 C 719.31987,424.91293 729.97903,432.19675 738.59375,441.25 C 742.34947,446.81218 747.8941,451.0393 751.1875,457.09375 C 756.5827,466.20719 767.86311,467.98059 776.53125,472.28125 C 780.50951,475.69948 784.99537,481.01289 783.5625,486.5625 C 779.79411,492.14104 774.86201,497.08651 772.5625,503.46875 C 765.58425,508.14436 758.13567,513.05545 752.5625,519.34375 C 748.66341,530.7045 750.93824,542.88125 754.69429,553.94818 C 755.47861,559.68321 760.6688,565.87118 755.84375,571 C 751.11911,578.49734 746.38067,587.06599 749.15625,596.21875 C 749.38635,599.02347 751.9909,602.1159 748.11228,603.94769 C 734.91945,617.77863 718.38906,627.9056 703.7343,640.11411 C 695.44907,646.59642 687.05219,652.93354 678.6875,659.3125 C 686.15832,687.00164 695.41332,715.44042 714.34375,737.5625 C 729.56049,752.4533 750.06802,760.38564 769.21875,769.21875 C 802.91735,783.36421 837.19854,796.22111 872.48503,805.67238 C 901.74486,809.19762 931.39424,806.73923 960.71511,804.97725 C 979.84253,802.92094 999.58797,802.40833 1017.875,796.03125 C 1031.4376,787.49977 1039.2108,772.7541 1047.0403,759.27777 C 1064.7311,725.33981 1076.6188,688.34625 1083.3163,650.66914 C 1085.0352,636.69504 1087.5524,620.54029 1079.2812,608.21875 C 1072.2203,599.22012 1059.2495,602.56245 1049.4062,601.5625 C 1029.5397,600.74684 1009.8903,605.53747 990.03125,604.6875 C 981.19932,604.39871 973.32015,600.78443 965.67564,596.55345 C 960.1832,594.69102 955.06857,592.68788 959.25,586.34375 C 959.93219,581.93764 959.46077,576.27992 965.46875,578 C 981.74397,577.41554 998.70117,575.07583 1012.1983,565.45579 C 1018.3602,563.0796 1017.8611,562.67107 1016.75,559.6875 C 1024.6033,548.23319 1023.7191,533.68865 1023.6699,520.49012 C 1024.2535,516.49501 1027.8978,513.74249 1027.9375,509.3125 C 1027.9926,502.37406 1031.525,496.04164 1032.9062,489.5625 C 1032.3708,485.48131 1028.8937,480.48477 1031.7812,476.875 C 1039.3683,477.52678 1048.5228,478.56281 1054.8125,473.4375 C 1062.2316,465.23459 1055.4465,454.05567 1053.6004,445.02621 C 1048.8924,426.79488 1043.125,408.75308 1039.8438,390.28125 C 1040.9095,384.18561 1048.7813,380.76624 1046.175,374.14698 C 1044.9384,358.6676 1042.1165,343.06456 1041.8438,327.65625 C 1044.0192,320.50503 1049.393,313.27797 1048.967,305.70691 C 1046.7605,299.49542 1047.6362,292.39684 1043.1562,287 C 1041.0592,281.785 1039.5459,276.07408 1033.9636,273.37588 C 1027.4244,267.1948 1020.0636,259.6069 1010.1562,261.21875 C 1007.0331,251.78921 998.93113,244.82181 992.625,237.46875 C 984.79074,231.60781 975.90874,226.92123 966.1875,224.84375 C 945.20094,216.96057 922.29698,218.55664 900.20204,217.61134 C 894.16288,216.66711 888.10493,215.22467 881.96875,215.34375 z "
         id="path3743" />
      <path
         style="opacity:0.1;fill:#999;fill-rule:evenodd;stroke:none;stroke-width:0.87036043"
         d="M 881.90625,214.5625 C 876.20942,215.15351 870.54924,216.63259 865.71875,219.59375 C 856.74796,220.05636 846.87276,216.08247 838.71875,221.84375 C 832.57928,226.26847 823.16992,223.31147 817.875,229.34375 C 809.88678,235.66658 799.87928,238.98481 793.21875,246.96875 C 789.73779,251.10549 785.26981,254.08825 782,258.4375 C 779.09265,262.00319 775.32846,264.20439 770.71875,264.34375 C 765.39844,265.71174 761.14181,260.06129 755.625,261.15625 C 745.34124,260.64599 738.55061,269.85366 729.40625,272.75 C 726.20133,274.54167 724.40434,278.75121 720.0625,277.875 C 711.42183,279.30567 709.37675,289.11068 703.34375,294.0625 C 699.72433,298.96521 695.52385,304.23734 697.11083,310.81133 C 697.52787,314.28573 698.30952,318.00956 694.8125,320.0625 C 689.93574,325.99566 684.78775,334.34052 689.09375,341.96875 C 690.89289,347.82889 697.75534,353.07058 693.6875,359.5625 C 690.06326,368.11197 692.9122,377.82594 697.375,385.46875 C 703.92944,394.50917 702.68298,407.46868 711.36616,415.24004 C 718.72948,425.39189 729.34818,432.69592 737.9375,441.71875 C 741.68899,447.11393 747.03837,451.25665 750.2625,457.13125 C 755.41668,466.10566 766.13,468.55571 774.96875,472.3125 C 779.49916,475.12179 783.85066,480.68163 782.875,486.21875 C 779.15755,491.75303 774.25458,496.52767 771.96875,502.9375 C 764.95834,507.61617 757.58292,512.51863 752,518.78125 C 747.74442,530.30446 750.16227,542.86163 753.94429,554.16693 C 755.03732,560.0368 759.66374,566.29575 754.67061,571.49916 C 749.94425,578.78266 745.70709,587.49118 748.40625,596.34375 C 748.52554,599.05817 751.20262,601.8849 747.39067,603.56995 C 734.21791,617.28303 717.79061,627.38034 703.2099,639.52919 C 694.81426,646.11083 686.2933,652.52863 677.8125,659 C 685.15495,686.49578 694.34238,714.68475 712.71875,736.875 C 726.27175,751.38705 745.32574,758.85413 762.9227,767.32609 C 798.12623,782.58828 834.36694,796.00956 871.375,806.25 C 898.27935,809.95626 925.67327,807.65149 952.70911,806.34597 C 974.39815,804.28534 996.70206,803.7379 1017.5625,797.03125 C 1030.3373,789.81284 1037.7934,776.22134 1045.3125,764.0625 C 1064.3969,729.18363 1076.7573,690.81628 1083.9375,651.78125 C 1085.7766,637.27773 1088.5304,620.5824 1079.875,607.71875 C 1072.6318,598.49355 1059.5479,601.73076 1049.4062,600.78125 C 1029.6929,600.0118 1010.2295,604.61165 990.53501,603.94462 C 982.11676,603.68858 974.19518,600.49389 966.92774,596.2529 C 960.84775,594.40106 956.4617,592.04307 960.17495,585.51542 C 959.87917,579.9937 962.39623,577.73942 967.75,578.6875 C 983.38476,577.95565 999.63317,575.37636 1012.6046,566.11216 C 1017.9155,563.61125 1022.2464,562.47559 1017.75,559.5625 C 1025.3275,548.09921 1024.5041,533.71886 1024.4443,520.64555 C 1025.0542,516.643 1028.7415,513.78476 1028.7188,509.3125 C 1028.6792,502.32625 1032.6166,495.96334 1033.6562,489.40625 C 1033.2669,485.46549 1030.1672,481.56879 1032.0625,477.65625 C 1039.7258,478.39587 1048.8441,479.18268 1055.2188,474.125 C 1062.4133,466.74082 1057.4579,456.01392 1055.1418,447.70119 C 1050.2161,428.57811 1044.0586,409.57963 1040.6562,390.25 C 1042.0064,384.20812 1049.6738,380.74382 1046.925,374.05323 C 1045.6836,358.67941 1042.9232,343.16663 1042.5938,327.875 C 1044.931,320.72423 1049.5709,313.83443 1050,306.40625 C 1047.45,299.89228 1048.5262,292.26242 1043.8125,286.59375 C 1041.7461,281.24704 1040.0661,275.54966 1034.4636,272.78213 C 1027.882,266.75439 1020.7331,258.91372 1010.8438,260.53125 C 1007.0735,250.99983 999.24043,243.56251 992.34375,236.21875 C 984.64361,230.78933 976.37094,226.26455 967.12935,224.31881 C 945.97351,216.28999 922.60664,217.68141 900.29629,216.85845 C 894.21207,215.87655 888.1001,214.43557 881.90625,214.5625 z "
         id="path3748" />
    </g>
    <path
       style="fill:url(#radialGradient2025);fill-rule:evenodd;stroke:#666;stroke-width:0.58937627"
       d="M 365.41663,119.5671 C 366.22997,127.97573 368.94286,153.20045 368.94286,153.20045 C 368.94286,153.20045 364.6027,158.35455 364.33158,161.33797 C 364.06047,164.32139 376.80868,209.88902 376.80868,209.88902 C 376.80868,209.88902 377.62202,216.66979 372.1974,217.75483 C 366.77219,218.83988 362.97543,218.29765 362.97543,218.29765 C 362.97543,218.29765 360.53423,217.75483 359.44919,218.29765 C 358.36474,218.83988 357.82192,223.17945 358.36474,224.2645 C 358.90696,225.34954 359.7203,228.87577 359.7203,228.87577 C 359.7203,228.87577 358.36474,232.94424 357.27911,234.30039 C 356.19406,235.65655 352.93953,237.82663 352.93953,237.82663 C 352.93953,237.82663 355.65184,238.91167 356.19406,240.26724 C 356.73688,241.62339 355.65184,244.33629 355.10961,245.14963 C 354.5668,245.96356 352.93953,247.86253 352.66841,248.40476 C 352.3973,248.94699 351.31226,257.62673 351.04115,257.89784 C 350.76944,258.16895 352.3973,263.32305 352.1256,264.95032 C 351.85507,266.57759 351.81618,272.61162 346.97269,277.42682 C 342.12801,282.24203 333.88617,283.92646 330.90275,284.19817 C 327.91932,284.46987 311.16925,286.10657 311.16925,286.10657 C 311.16925,286.10657 309.8131,293.70068 309.8131,293.70068 C 309.8131,293.70068 308.18524,299.397 308.18524,299.397 C 308.18524,299.397 317.67891,303.73658 317.67891,303.73658 C 317.67891,303.73658 321.47627,306.17778 324.7308,306.99171 C 327.98592,307.80563 334.22388,308.89068 339.37798,308.34786 C 344.53149,307.80563 356.73688,306.99171 361.07646,306.44889 C 365.41663,305.90666 383.04664,306.17778 385.75895,306.72 C 388.47185,307.26223 402.03339,308.61897 390.09912,355.00053 C 378.16424,401.38209 360.80593,427.96296 351.31226,433.93039 C 341.81918,439.89724 266.95778,444.23681 251.76897,440.44005 C 236.57956,436.64211 163.61649,412.23073 147.88545,395.95688 C 132.15322,379.68243 123.74515,344.1507 123.74515,344.1507 C 123.74515,344.1507 134.05202,336.28489 134.05202,336.28489 C 134.05202,336.28489 165.51546,311.8741 165.51546,311.8741 C 165.51546,311.8741 171.75341,305.36444 171.75341,305.36444 C 171.75341,305.36444 172.29682,303.46547 171.75341,302.65154 C 171.21119,301.8382 170.66896,296.9558 170.66896,295.32854 C 170.66896,293.70068 172.83904,288.81888 173.92414,287.19102 C 175.00854,285.56375 177.44974,280.95306 177.44974,280.68136 C 177.44974,280.41084 172.83904,264.95032 172.29682,261.42408 C 171.75341,257.89784 172.56734,250.03203 173.65238,248.94699 C 174.73743,247.86253 181.78996,242.43732 182.875,241.62339 C 183.95946,240.81006 186.67177,239.1822 186.67177,239.1822 C 186.67177,239.1822 188.29962,235.38543 189.65519,233.48646 C 191.01193,231.58808 195.0804,227.24791 194.80928,225.62065 C 194.53758,223.99338 194.53758,222.63723 193.72365,221.00996 C 192.91031,219.38269 190.74023,216.66979 189.38467,215.58475 C 188.02792,214.5003 183.95946,212.87303 181.78996,212.33021 C 179.61988,211.78799 174.73743,208.53286 174.19467,207.99063 C 173.65238,207.44782 168.77058,200.66705 168.22777,199.85371 C 167.68495,199.03978 164.1593,196.05577 163.88825,194.97131 C 163.61649,193.88627 157.10682,188.73218 156.29354,187.64772 C 155.47956,186.56268 150.05494,182.22251 149.78382,181.68029 C 149.51271,181.13807 143.54528,174.35729 143.00305,173.54336 C 142.46024,172.72943 141.10408,168.66097 140.83297,168.11874 C 140.56185,167.57593 139.20511,161.88019 139.20511,161.88019 C 139.20511,161.88019 134.05202,152.65822 134.05202,152.11541 C 134.05202,151.57318 132.96721,147.23301 132.96721,145.60575 C 132.96721,143.97848 135.13688,138.01164 135.13688,137.46882 C 135.13688,136.92659 134.59442,134.4854 134.59442,134.4854 C 134.59442,134.4854 129.16962,126.34847 129.98355,123.09334 C 130.79748,119.8388 132.69568,117.66872 133.50961,116.31257 C 134.32354,114.95641 136.76474,113.05803 136.76474,111.97299 C 136.76474,110.88795 136.22169,105.19163 136.49321,103.56436 C 136.76474,101.93709 139.47681,98.953609 140.01904,97.868569 C 140.56185,96.784175 142.46024,95.42743 142.73135,94.885205 C 143.00305,94.34239 144.90143,91.90113 145.44425,90.816741 C 145.98648,89.731051 148.15597,87.833317 149.51271,87.561616 C 150.86886,87.290442 153.58117,87.290442 154.1234,86.476512 C 154.66563,85.662642 156.29354,84.307077 157.10682,83.764793 C 157.92081,83.221387 161.71811,81.865883 161.98928,81.594178 C 162.26098,81.323653 164.97323,79.152923 167.14273,78.068529 C 169.31281,76.983489 171.21119,76.169559 172.56734,76.169559 C 173.92414,76.169559 176.36528,76.169559 177.17862,76.711789 C 177.99261,77.255189 181.51826,78.610698 182.33219,78.610698 C 183.14553,78.610698 187.7574,77.525654 188.57074,77.525654 C 189.38467,77.525654 195.0804,72.101095 195.35151,71.287755 C 195.62262,70.473825 199.96279,67.490406 199.96279,66.947531 C 199.96279,66.405361 205.65852,61.522972 205.92964,61.251797 C 206.20075,60.980743 209.72699,59.081713 210.81203,58.539488 C 211.89707,57.996673 217.8645,53.928269 218.94896,52.843755 C 220.034,51.758715 228.17093,50.944845 228.17093,50.944845 C 228.17093,50.944845 233.32503,47.68972 236.03675,47.418565 C 238.74905,47.147476 243.63145,47.961366 244.44537,47.961366 C 245.25871,47.961366 248.51384,48.775291 250.68333,47.147476 C 252.85401,45.520176 256.10854,45.249091 258.82085,44.706877 C 261.53316,44.163436 271.84017,46.334131 272.65351,46.334131 C 273.46744,46.334131 278.62095,46.334131 279.97711,46.334131 C 281.33385,46.334131 298.69216,46.876351 300.59113,47.418565 C 302.48951,47.961366 309.8131,48.775291 311.71148,49.58863 C 313.61045,50.40262 321.74738,52.843755 322.83242,53.114279 C 323.91746,53.385984 331.51216,57.996673 332.59662,58.810663 C 333.68166,59.623997 343.98867,71.016055 344.25979,74.000005 C 344.53149,76.983489 348.59995,75.084519 351.58337,76.169559 C 354.5668,77.255189 358.63526,81.323653 359.44919,82.136347 C 360.26253,82.950923 364.06047,85.934347 364.33158,86.204871 C 364.6027,86.476512 366.50167,91.63008 366.50167,91.63008 C 366.50167,91.63008 368.67116,95.42743 368.94286,96.240769 C 369.21338,97.054639 369.7562,101.93709 369.7562,101.93709 C 369.7562,101.93709 370.84124,105.19163 370.84124,105.19163 C 370.84124,105.19163 368.67116,111.97299 367.58612,113.87196 C 366.50167,115.77034 365.41663,119.5671 365.41663,119.5671"
       id="path2723" />
    <path
       style="fill:url(#radialGradient2022);fill-rule:evenodd;stroke:none"
       d="M 353.15052,251.66224 C 352.17629,245.44962 356.69975,266.41727 347.86382,276.452 C 341.19149,284.0296 326.61386,287.94307 296.80733,286.28102 C 270.85474,272.28451 256.83937,259.96773 249.91125,248.6411 C 194.21873,116.36561 333.67694,105.20224 362.3554,106.15879 C 363.56657,106.19887 370.02201,150.74275 364.24612,160.15627"
       id="path2734" />
    <path
       style="fill:url(#radialGradient2015);fill-rule:evenodd;stroke:#666;stroke-width:0.58937627"
       d="M 358.93938,228.64415 C 358.93938,228.99129 356.85711,232.1144 356.85711,232.1144 C 356.85711,232.1144 355.46913,230.55314 355.46913,230.55314 C 355.46913,230.55314 350.783,231.24684 348.18032,233.50297 C 345.57763,235.75851 341.75965,237.49422 340.19839,237.84077 C 338.63655,238.18792 331.34773,239.57649 331.34773,239.57649 C 331.34773,239.57649 335.16512,242.70018 337.42125,243.91489 C 339.67739,245.12959 342.97435,247.90615 345.23049,247.21186 C 347.48603,246.51758 350.08931,246.17102 351.82443,245.99715 C 353.56014,245.82388 355.29527,245.47674 355.29527,245.12959"
       id="path2754" />
    <path
       style="fill:none;stroke:#666;stroke-width:0.58937627"
       d="M 352.34485,237.49422 C 350.95686,237.14708 349.74216,236.97322 347.83317,236.97322 C 345.92477,236.97322 344.36293,237.6675 342.6278,238.18792 C 340.89209,238.70834 338.46327,239.57649 336.72696,239.57649 C 334.99184,239.57649 333.42999,239.22935 333.42999,239.22935"
       id="path2756" />
    <path
       style="fill:none;stroke:#666;stroke-width:0.58937627"
       d="M 334.47142,233.50297 C 334.29756,233.67625 331.5216,239.05548 329.6126,241.65935 C 327.70362,244.26203 324.92765,247.90615 324.58051,248.25329"
       id="path2758" />
    <path
       style="fill:url(#radialGradient2001);fill-rule:evenodd;stroke:none"
       d="M 349.47753,156.9866 C 349.47753,156.9866 354.26268,162.41358 358.45256,164.08977 C 362.64243,165.76595 376.68019,210.18076 372.77676,211.49448 C 369.37252,212.63964 367.27198,215.81461 363.60194,212.36911 C 363.06384,211.86402 357.55435,218.51395 355.81392,209.19709 C 354.76247,203.56914 344.69474,204.08366 340.09466,207.1826 C 334.99066,216.44819 343.33034,220.37815 343.33034,220.37815 C 343.33034,220.37815 326.01446,224.02462 326.01446,221.51093 C 326.01446,218.99665 335.77866,216.2808 336.36509,210.24264 C 336.95093,204.20448 346.96384,200.56155 346.96384,200.56155 C 346.96384,200.56155 349.47812,198.04727 347.80193,194.69549 C 346.12575,191.3437 340.26028,188.83001 340.26028,188.83001 C 340.26028,188.83001 333.99462,192.57314 333.99462,192.57314 C 333.99462,192.57314 326.06161,190.86572 327.73721,186.67584 C 329.41339,182.48597 341.09778,177.93598 341.93587,175.4223 C 342.77397,172.90802 347.80193,166.20445 347.80193,166.20445 C 347.80193,166.20445 346.96384,161.17648 342.77397,161.17648 C 338.58409,161.17648 342.77397,160.33839 335.23231,161.17648 C 327.69065,162.01457 322.66268,164.52826 322.66268,163.69017"
       id="path2967" />
    <path
       style="fill:url(#radialGradient2958);fill-opacity:1;fill-rule:evenodd;stroke:#666;stroke-width:0.58937627"
       d="M 274.52655,165.9351 C 272.5281,174.38372 251.37342,167.40336 255.60143,174.94034 C 262.87221,175.95564 271.35876,173.00117 274.52655,165.9351 z M 282.61279,155.15364 C 271.08005,165.29052 250.18814,166.05006 240.7973,152.62818 C 236.5248,150.00342 216.28617,158.09011 227.45706,149.94171 C 240.41571,147.51621 253.17348,159.6735 265.6176,152.79583 C 272.37566,141.816 284.29751,132.46364 298.12512,136.84884 C 307.92293,138.96004 292.32987,127.43317 287.3536,132.21902 C 275.02847,136.94755 262.22595,147.23126 248.81486,137.71052 C 234.85252,124.49595 222.12169,140.03438 207.88312,142.21232 C 201.22824,138.72776 189.06058,130.40178 183.92816,140.05802 C 197.15764,143.92641 213.79512,153.07527 224.8947,140.22776 C 237.7328,138.02476 250.65471,143.73927 260.8633,151.11143 C 246.81903,152.24415 231.84605,135.71898 219.85642,150.31792 C 207.29823,155.61073 192.15412,152.27201 181.51436,144.49187 C 168.3065,137.91476 176.05994,153.71111 183.96843,154.87773 C 195.85587,160.96182 209.29881,164.17669 222.61105,162.29042 C 234.14133,161.3738 245.71771,163.45841 256.27124,167.96855 C 266.78708,169.32471 275.0606,161.13585 282.61279,155.15364 z M 301.86536,143.60187 C 287.52315,133.24321 276.27472,152.53303 264.56319,158.04683 C 269.80593,159.84031 282.6908,148.6285 291.3634,145.95985 C 294.73533,144.70567 298.26957,143.8446 301.86536,143.60187 z M 267.98093,128.97002 C 254.0458,134.78031 238.69884,114.58122 226.52564,128.38497 C 222.41451,130.50946 209.10182,132.35415 220.86077,130.34612 C 235.67949,123.81259 251.5544,137.17402 265.35955,132.42965 L 266.87225,130.85819 L 267.98093,128.97002 L 267.98093,128.97002 z M 320.3476,127.42938 C 317.85955,130.79875 302.54559,132.27562 314.25464,132.67245 C 316.82661,131.73449 319.05688,129.85175 320.3476,127.42938 z M 331.51392,121.26864 C 317.63341,122.97732 301.0594,127.96706 289.34561,117.4705 C 276.87737,117.5602 261.31879,130.08561 251.24986,117.45361 C 266.2782,122.87219 281.68426,106.02141 296.02965,115.78655 C 308.66185,124.7103 323.64502,112.73773 330.70768,102.61034 C 340.94157,99.656108 342.01805,104.91014 336.92844,107.91993 C 340.16158,112.83315 332.0634,119.79981 329.79578,119.04673 C 330.61142,119.46171 333.24355,119.69451 332.28424,121.26864 M 346.53125,109.71745 C 357.56019,97.46087 334.3708,75.106432 325.41221,91.648051 C 323.86281,97.028675 310.84373,106.0277 312.53084,104.0372 C 318.8416,99.634721 316.46098,93.560697 310.79473,100.35679 C 302.72001,104.61977 288.01128,94.736692 283.74963,104.2577 C 295.60727,108.63754 314.11161,115.73802 321.91135,101.26443 C 325.35669,97.137093 344.24532,93.237353 329.30274,94.671076 C 324.93511,96.095549 312.8958,107.3477 313.02897,102.7208 C 319.54508,99.415477 336.50183,90.438358 327.70659,83.88098 C 329.5976,83.636968 340.42219,83.396779 333.5216,80.933453 C 346.20608,75.42094 357.73389,99.274286 348.51979,108.24238 L 346.53125,109.71745 L 346.53125,109.71745 z M 339.2153,68.131645 C 306.90836,64.813024 279.44329,85.298084 252.15977,99.195008 C 239.50174,106.10751 227.6174,114.71748 213.82203,119.31985 C 244.97724,102.7994 274.31653,82.035564 308.03429,70.935208 C 318.29732,68.841364 328.82731,69.085003 339.2153,68.131645 z M 339.25479,74.875877 C 308.03751,80.316543 280.23044,96.312752 253.77301,112.95327 C 241.02543,120.10939 226.08511,127.22379 211.17654,123.76701 C 202.045,120.98586 207.43106,108.65019 214.34879,116.81511 C 224.73459,128.73741 239.10583,119.84062 248.74082,112.33482 C 270.49771,100.88618 292.41696,89.439913 315.44118,80.753743 C 323.18336,78.097147 331.14291,76.01965 339.25479,74.875877 z M 349.99677,83.148949 C 354.38791,72.03806 367.08264,95.016001 355.35587,86.275901 C 353.45906,85.949793 350.66134,85.591185 350.38164,83.148952 M 357.31271,92.004921 C 364.21929,86.06135 367.75064,105.56276 360.11858,96.025803 C 358.07264,96.375492 351.22968,93.622362 356.92784,92.389786 M 366.55411,115.87819 C 349.92144,110.68686 373.23467,92.906966 369.16302,111.56861 C 368.01683,113.24712 366.50403,114.70167 365.78381,116.64851 M 314.57172,85.458717 C 298.85974,82.442536 309.30042,107.43738 317.12918,92.597941 C 307.08875,91.066378 310.34651,92.805916 314.57172,86.229034 M 281.45761,106.25192 C 277.34731,108.2889 256.93294,114.9279 271.05435,111.8145 C 285.03878,104.50997 299.34429,115.32127 311.96897,114.17776 C 302.65913,114.56331 290.80573,109.44717 280.60552,106.91479 L 278.7624,106.63678 M 289.15839,127.04452 C 281.69372,120.5047 269.31676,141.75119 282.36559,131.28292 C 284.62216,129.98492 286.88032,128.6894 289.1584,127.42938 M 162.8615,146.29709 C 163.39476,132.85974 145.07015,119.24757 133.46983,128.66947 C 138.31622,139.57812 156.06518,125.88035 158.2526,140.66677 C 159.52632,141.74903 161.16083,142.49395 162.8615,142.44669 M 137.83304,113.18298 C 142.55387,116.78812 141.03707,120.10659 140.98913,113.28965 C 146.97339,110.07063 154.75479,125.81646 147.14858,113.67272 C 144.86115,110.18663 136.5161,106.64506 137.83304,114.33816 M 137.06302,109.332 C 138.52087,95.334351 167.96634,102.8071 162.56765,110.26077 C 154.67379,107.93584 145.95568,103.11268 137.83304,107.40709 M 170.17741,120.88377 C 166.17355,118.22596 155.528,112.67344 165.28004,118.94231 C 170.60964,123.23912 156.44783,137.75024 169.12036,132.70803 C 171.97315,139.72377 180.78108,130.5074 173.14921,128.21928 C 175.82489,114.91255 178.76965,100.81535 184.53654,88.882441 C 186.59665,76.922314 181.47459,84.70199 179.63814,91.072619 C 175.66343,93.936498 158.97783,82.54705 170.19031,89.219096 C 178.80481,94.998936 171.75724,107.52996 166.71495,95.468118 C 161.69172,90.692139 157.22504,93.316443 164.54862,97.517568 C 170.29695,102.26337 182.11208,120.70388 165.94215,119.34373 M 194.05077,81.608261 C 191.37744,88.033665 187.69358,106.63 193.49197,106.58921 C 195.02228,98.694437 192.60766,90.686169 193.6659,82.763502 M 203.67703,112.79753 C 210.39705,100.19206 196.88874,83.965058 208.41098,73.100056 C 227.25175,61.468083 250.58631,61.332423 269.98854,50.937549 C 280.25293,53.982735 260.36793,59.562266 256.55897,60.769384 C 240.94206,65.921536 223.46464,66.650885 209.3684,75.607563 C 199.09845,86.234146 217.66477,104.11624 204.0619,112.79753 M 214.84335,74.6772 C 207.92271,78.82835 212.88546,102.53439 217.863,93.944596 C 217.48604,87.709076 215.34695,81.710742 215.22881,75.447517 M 211.37782,115.10788 C 225.05775,108.89824 222.09903,91.228394 220.98386,79.202481 C 224.24249,67.669026 233.76837,76.958525 230.45613,85.285697 C 231.54733,100.26179 222.91634,114.49555 207.91289,118.18855 M 228.32063,107.02164 C 240.69372,99.962871 226.52122,78.017497 238.01305,73.915788 C 238.69632,84.664858 242.2092,105.11739 227.55032,107.79195 M 260.66443,71.981979 C 249.78386,73.275536 236.62122,96.459966 246.69861,99.710855 C 254.07172,92.225338 251.52607,79.711464 259.12439,72.367439 M 255.27399,94.700142 C 256.61712,87.97125 256.97669,77.161111 266.0699,76.758 C 260.54677,81.71454 260.62092,90.293017 254.88912,95.085531 M 308.02612,60.045345 C 304.49325,61.406265 294.79481,66.488154 304.05987,63.332561 C 307.27489,73.731575 322.15203,66.40941 310.65691,60.664402 L 308.61216,59.830799 L 306.48608,59.275681 M 313.03168,57.350128 C 321.50675,57.010743 330.09596,59.589756 336.90496,64.666114 M 317.6524,60.430798 C 323.80469,61.84745 329.73609,64.133077 335.36492,66.97647 M 303.4054,54.270046 C 310.96479,53.839665 319.69747,51.599672 326.1235,56.965263 M 320.3476,68.516449 C 313.57507,60.313621 313.15276,63.097312 320.73248,68.516449 M 242.18217,80.8386 C 249.16009,65.77028 267.86602,65.1928 282.17689,63.883108 C 289.16614,64.582353 297.01385,54.631491 285.38606,59.490859 C 269.81049,62.739398 247.91582,62.118887 241.79731,80.453146 M 299.55502,71.212318 C 293.47797,60.269522 271.55406,76.869615 275.51167,79.188599 C 282.65408,73.749091 291.6995,70.659728 300.71017,71.212318 M 286.4632,51.95969 C 289.4737,52.518008 292.23265,54.05474 295.31916,54.270047 M 238.33177,50.03426 C 233.74623,58.807663 212.52057,60.664078 212.26383,66.170278 C 226.62489,60.166186 241.16887,54.444974 256.27825,50.598673 C 250.29542,48.567217 238.58736,59.862094 236.39558,52.885844 C 238.73154,52.020865 241.55411,50.833938 242.18217,48.108708 M 186.73483,102.40152 C 175.96125,106.57219 185.38837,129.95139 194.86864,119.0701 C 181.79453,125.0176 186.62464,109.51927 187.50514,102.78638 M 215.22881,229.85355 C 212.1332,216.56198 207.35598,231.9824 215.61368,229.4681 M 195.59081,212.91135 C 193.75148,209.54366 182.42725,193.0698 184.27463,203.28655 C 186.72609,207.28738 199.13406,217.39836 190.58523,207.13545 M 180.18861,204.82509 C 170.95955,211.45273 168.9836,187.99009 178.00131,199.55765 C 178.94408,200.34532 187.86358,207.43717 180.95894,204.82509 M 204.83221,230.2384 C 195.65841,223.45856 204.39134,243.86064 200.84205,248.41812 C 199.7943,266.67277 193.60056,286.25925 178.4738,297.3923 C 183.52626,293.96059 191.41654,282.74706 185.77153,279.08192 C 183.1782,282.31188 177.16385,296.23363 180.4882,284.5025 C 175.67788,268.92506 193.11157,260.37216 197.81301,247.92897 C 199.47891,240.86963 199.12471,233.56151 199.82664,226.38802 M 195.20593,233.70393 C 197.7156,247.13733 171.72648,250.71913 178.45408,263.15622 C 188.10204,257.92444 201.66735,246.63636 194.05077,234.47426 M 241.3317,235.25519 C 230.22952,231.17777 210.603,223.38373 215.35427,208.58677 C 224.87585,197.56671 244.62245,210.00729 242.89115,223.39147 C 243.39647,227.35377 243.84059,231.95728 241.0706,235.25519 M 234.26685,219.03084 C 245.32672,211.54027 217.19819,203.81406 227.18337,214.6257 C 230.21945,215.42594 235.06987,215.877 235.57526,219.81647 M 225.37021,223.21776 C 222.00089,220.03999 212.1146,210.33114 220.09627,220.13923 C 221.56891,221.25022 223.16776,222.19186 224.84625,222.95608 M 250.18295,198.44685 C 237.10683,192.48276 218.69982,191.95936 209.19325,204.45656 C 222.17565,207.82323 236.85941,191.46809 248.07853,202.9966 C 243.68738,205.25684 235.56485,207.00486 245.33378,206.43093 C 248.88618,206.35843 254.04717,202.23148 250.18295,198.78281 M 260.27957,187.49744 C 255.0554,184.04658 253.02935,192.14847 259.50925,187.11256 M 261.04987,179.02634 C 248.0535,189.88733 231.89862,177.67372 217.48675,178.85265 C 210.95053,177.53042 199.06419,190.73116 211.65252,186.39939 C 228.1166,183.74851 207.49332,199.88274 200.85018,192.7992 C 195.67857,190.61927 186.6775,186.26769 194.81048,194.20049 C 208.41377,204.91725 221.5531,189.17827 234.82754,187.92018 C 243.67907,187.60071 254.50554,188.49484 259.89471,179.79665 M 167.09734,162.85443 C 166.06881,168.01905 186.43833,179.6921 174.8906,173.84487 C 162.75613,164.44657 177.84317,183.07828 182.16038,185.92976 C 188.99783,192.80013 196.00114,199.50925 202.62299,206.59116 C 186.67493,202.86665 178.91544,186.67268 170.8863,174.07291 L 170.70762,173.40711 L 170.56229,172.86559 M 253.3485,191.73328 C 242.30841,187.71772 248.32061,203.04885 255.80788,194.50203 C 256.77737,192.70785 254.62325,191.11102 252.96363,191.34842 M 252.57877,177.87115 C 239.96979,177.00188 223.8276,159.5574 213.87395,174.99953 C 204.64199,185.87545 188.38048,166.56093 182.46976,170.79398 C 189.08871,183.1907 208.18468,186.34383 217.28813,175.01693 C 228.86545,169.58168 240.37574,185.39817 251.42358,177.4863 M 167.86707,148.22258 C 162.54399,156.99379 175.10263,166.52596 181.84508,160.01746 C 190.84201,161.31887 202.06437,178.9702 208.62811,170.47943 C 198.78773,157.85227 179.32288,161.6007 168.94932,149.6456 C 168.46028,149.42783 167.97125,149.21006 167.48221,148.99229 M 173.25809,190.19324 C 156.36764,182.68423 137.96715,168.32827 138.95594,147.90634 C 140.02185,137.63122 166.09534,146.37198 148.91505,148.5333 C 135.16748,155.06412 151.90823,180.17139 156.8423,175.97411 C 151.37303,166.97431 166.98659,179.62497 168.99029,174.98595 C 171.10581,180.07831 172.42614,185.44202 174.41327,190.5781 M 162.47662,152.45784 C 154.4099,143.9129 144.66932,166.46325 158.34726,160.92948 C 172.95972,172.40797 160.49879,160.4494 162.09118,153.22815 M 138.98822,139.36601 C 126.44697,139.14863 139.70571,165.20503 138.5816,147.35006 C 139.34721,144.98507 139.64332,140.2656 135.9079,140.52119 M 218.30888,227.15775 C 213.52584,223.12539 194.01142,206.49326 210.1996,210.78765 C 212.26525,211.98114 226.77316,229.06874 217.92403,225.6177"
       id="path2839"
       sodipodi:nodetypes="cccccccccccccccccccccccccccccccccccccccccccccccccccccccccccccccccccccccccccccccccccccccccccccccccccccccccccccccccccccccccccccccccccccccccccccccccccccccccccccccccccccccccccccccccccccccccccccccccccccccccccccccccccccccccccccccccccccccccccccccc" />
    <path
       style="fill:none;stroke:#666;stroke-width:0.58937627"
       d="M 354.25443,203.74595 C 353.03913,203.74595 349.91544,203.5821 347.83317,204.07364 C 345.75091,204.56459 344.36293,204.72844 341.93352,206.53016 C 339.50411,208.3313 338.63655,211.44379 338.63655,212.42628 C 338.63655,213.40936 339.33083,216.02973 339.85125,217.01222 C 340.37167,217.99471 341.58637,219.30489 342.28066,219.46874 C 342.97435,219.63258 344.71007,219.96028 345.57763,219.79644 C 346.44519,219.63258 348.35359,219.63258 349.04788,219.30489 C 349.74216,218.97779 350.26258,218.48625 351.65056,218.3224 C 353.03913,218.15856 353.90729,217.99471 354.94812,217.99471 C 355.98955,217.99471 359.63367,217.99471 359.63367,217.99471 C 359.63367,217.99471 360.84837,215.2105 360.32736,215.2105 C 359.80694,215.2105 357.20426,214.39185 355.81627,214.5557 C 354.4277,214.71955 352.17157,214.88339 351.65056,215.2105 C 351.13014,215.53819 349.91544,216.02973 349.91544,216.35742 C 349.91544,216.68452 351.65056,217.17607 352.17157,217.17607 C 352.69199,217.17607 356.16283,217.01222 356.50997,217.01222 C 356.85711,217.01222 359.80694,217.17607 359.80694,217.17607"
       id="path3266" />
    <path
       id="path2743"
       style="fill:url(#radialGradient2967);fill-rule:evenodd;stroke:none;stroke-width:0.58937627;fill-opacity:1.0"
       d="M 332.90958,174.15513 C 332.90958,173.63471 333.60386,172.24615 333.951,171.899 C 334.29756,171.55245 334.99184,170.68489 334.99184,169.9906 C 334.99184,169.29632 335.16512,167.56119 334.99184,167.21405 C 334.81857,166.86691 332.21529,165.30565 331.69487,165.30565 C 331.17445,165.30565 323.53908,167.90833 323.36581,168.08161 C 323.19194,168.25548 316.25086,171.55245 315.20943,171.899 C 314.16859,172.24615 309.65691,174.50228 309.48305,174.50228 C 309.30977,174.50228 302.71524,177.79984 302.3681,177.79984 C 302.02096,177.79984 297.16214,178.84068 297.16214,178.84068 C 297.16214,178.84068 296.46844,179.70824 296.46844,179.70824 C 296.46844,179.70824 306.01221,178.14698 306.18549,178.14698 C 306.35935,178.14698 310.35061,177.27883 310.35061,177.27883 C 310.35061,177.27883 312.60674,176.93169 312.60674,177.10496 C 312.60674,177.27883 315.20943,178.32026 315.20943,178.32026 C 315.20943,178.32026 318.33312,181.09681 318.5064,181.09681 C 318.67968,181.09681 322.15051,182.31151 323.19194,182.48479 C 324.23337,182.65866 328.05076,182.83193 328.57117,182.65866 C 329.09219,182.48479 331.34773,180.92294 331.34773,180.57639 C 331.34773,180.22925 331.69487,178.49353 331.69487,178.32026 C 331.69487,178.14698 331.00058,177.10496 331.00058,177.10496 C 331.00058,177.10496 331.00058,176.75782 331.69487,175.71698 C 332.38916,174.67555 332.7363,173.63471 332.7363,173.63471M 333.60386,171.899 C 333.60386,171.37858 332.7363,169.64346 332.56243,169.64346 C 332.38916,169.64346 330.65403,169.81674 330.48017,169.81674 C 330.30689,169.81674 326.14236,171.20531 325.96849,171.37858 C 325.79521,171.55245 319.20068,174.67555 318.67968,174.84942 C 318.15926,175.02269 313.82145,176.41068 313.82145,176.41068 C 313.82145,176.41068 318.33312,178.14698 318.5064,178.32026 C 318.67968,178.49353 321.63009,180.40252 321.63009,180.40252 C 321.82989,180.47443 326.40286,181.72862 329.78588,180.74966 C 329.78588,180.74966 331.5216,178.32026 331.5216,178.32026 C 331.5216,178.32026 330.48017,177.4521 330.48017,177.4521 C 330.48017,177.4521 328.57117,178.49353 328.57117,178.49353 C 328.57117,178.49353 324.23337,178.6674 324.23337,178.6674 C 324.23337,178.6674 320.41539,177.4521 320.24152,177.4521 C 320.06824,177.4521 315.38329,176.2374 315.38329,176.2374M 324.3312,164.08387 C 326.05808,164.08387 327.14135,164.4098 328.96311,165.06165 C 330.78429,165.71409 332.74691,167.3443 332.79406,167.67023 C 332.84121,167.99615 334.00287,171.25658 333.7518,171.90843 C 333.50072,172.56028 333.09228,174.51642 332.49583,175.16886 C 331.89879,175.82071 331.23928,178.4287 330.94106,178.75521 C 330.64283,179.08114 330.62692,181.36321 330.423,182.34157 C 330.21907,183.31934 329.62204,183.9712 328.97844,184.29771 C 328.33484,184.62364 325.36733,185.60141 325.36733,185.60141 C 325.36733,185.60141 324.22099,187.23162 323.62454,187.88347 C 323.0275,188.53592 322.96503,190.49205 322.96503,190.49205 C 322.96503,190.49205 326.05808,192.77412 326.60738,191.79634 C 327.15726,190.81798 327.54979,191.1439 331.47503,187.23162 C 335.40028,183.31934 338.02241,182.34157 338.52515,181.03728 C 339.0273,179.73299 341.8068,177.45093 342.74862,176.79908 C 343.69103,176.14664 344.82146,176.79908 346.01436,175.49479 C 347.20785,174.1905 349.53175,173.53865 349.82998,173.21272 C 350.1282,172.8868 350.47358,172.8868 350.77239,172.56028 C 351.07061,172.23436 353.40985,169.30044 351.8869,168.32208 C 350.36395,167.3443 348.05596,165.71409 346.87838,164.73572 C 345.70081,163.75795 347.38053,163.43202 340.07934,163.10551 C 332.77814,162.77958 324.9748,163.75795 324.9748,163.75795M 355.12199,163.56994 C 354.25443,161.66095 351.30401,160.0991 349.91544,159.40481 C 348.52746,158.71053 342.97435,158.53725 340.89209,158.8844 C 338.80982,159.23154 326.83605,159.40481 325.44807,159.75195 C 324.06009,160.0991 308.44221,162.52851 304.62364,163.7438 C 300.80625,164.95851 292.9976,169.81674 291.08862,170.51102" />
    <path
       style="fill:none;stroke:#868787;stroke-width:1.287;stroke-miterlimit:4;stroke-dasharray:none;stroke-opacity:1"
       d="M 243.05373,231.56497 C 255.42741,281.48726 369.2455,312.70758 352.49368,247.63765"
       id="path3279"
       sodipodi:nodetypes="cc" />
    <path
       style="opacity:0.49450552;fill:url(#radialGradient1983);fill-opacity:1;fill-rule:evenodd;stroke:none;stroke-width:1px;stroke-linecap:butt;stroke-linejoin:miter;stroke-opacity:1"
       d="M 291.28724,304.9363 C 290.82745,309.48104 284.34112,317.34737 282.67861,322.59351 C 280.53362,329.36213 277.10265,332.74936 274.06998,337.53423 C 270.44806,343.24879 273.25053,349.8238 275.7917,353.83319 C 278.95111,358.81803 285.65271,361.6124 291.28724,366.05742 C 296.54759,370.20724 300.62718,372.06733 305.06106,375.56515 C 304.74519,367.40001 295.61594,363.68102 288.85223,346.61974 C 295.1993,335.46693 299.0124,316.88526 299.89587,307.6528 C 299.89587,303.4258 303.71138,302.97605 291.28724,304.9363 z "
       id="path4373"
       sodipodi:nodetypes="cssssscsc" />
    <path
       style="opacity:0.49450552;fill:url(#linearGradient1980);fill-opacity:1;fill-rule:evenodd;stroke:none;stroke-width:1px;stroke-linecap:butt;stroke-linejoin:miter;stroke-opacity:1"
       d="M 204.4444,302.58916 C 208.25368,305.31612 211.42378,310.28015 213.84606,315.12471 C 216.50292,320.43843 217.52983,321.50276 219.0692,327.66025 C 220.52827,333.4965 222.51942,335.28899 225.33698,338.10654 C 228.09994,340.86951 236.4994,341.24043 239.96178,341.24043 C 245.46171,341.24043 250.01469,344.37431 255.63121,344.37431 C 260.51223,344.37431 265.38744,347.33569 270.25602,348.55283 C 275.72448,349.91995 271.75609,347.96365 268.16676,344.37431 C 263.52904,339.73659 264.82332,336.95714 258.7651,333.92803 C 253.83377,331.46236 248.23166,332.07814 243.09567,330.79414 C 239.50649,329.89685 234.36293,325.90546 231.60475,324.52637 C 226.84253,322.14525 224.53325,318.4995 221.15846,315.12471 C 216.90521,310.87145 215.77823,308.29535 209.66754,306.76768 C 207.50448,306.22691 206.18545,303.982 204.4444,302.58916 z "
       id="path5280" />
    <path
       style="opacity:0.49450552;fill:url(#radialGradient1977);fill-opacity:1;fill-rule:evenodd;stroke:none;stroke-width:1px;stroke-linecap:butt;stroke-linejoin:miter;stroke-opacity:1"
       d="M 283.75344,341.46953 C 286.25789,347.58373 288.70847,355.6583 290.02122,364.60333 C 291.91389,377.50005 291.66966,375.9825 298.37825,378.83952 C 304.04015,381.25078 308.82453,378.70014 308.82453,369.94189 C 308.82453,358.12911 308.05058,352.76145 304.64602,345.02858 C 302.23195,339.54542 297.33667,337.91309 293.1551,334.35143 C 290.06442,331.71896 288.33077,313.83872 285.8427,330.79239 C 285.30857,334.43194 284.44986,337.91048 283.75344,341.46953 z "
       id="path5298" />
  </g>
</svg>
